G04 #@! TF.GenerationSoftware,KiCad,Pcbnew,(6.0.0)*
G04 #@! TF.CreationDate,2022-01-12T16:05:06+03:00*
G04 #@! TF.ProjectId,svet,73766574-2e6b-4696-9361-645f70636258,rev?*
G04 #@! TF.SameCoordinates,Original*
G04 #@! TF.FileFunction,Copper,L2,Inr*
G04 #@! TF.FilePolarity,Positive*
%FSLAX46Y46*%
G04 Gerber Fmt 4.6, Leading zero omitted, Abs format (unit mm)*
G04 Created by KiCad (PCBNEW (6.0.0)) date 2022-01-12 16:05:06*
%MOMM*%
%LPD*%
G01*
G04 APERTURE LIST*
G04 Aperture macros list*
%AMRoundRect*
0 Rectangle with rounded corners*
0 $1 Rounding radius*
0 $2 $3 $4 $5 $6 $7 $8 $9 X,Y pos of 4 corners*
0 Add a 4 corners polygon primitive as box body*
4,1,4,$2,$3,$4,$5,$6,$7,$8,$9,$2,$3,0*
0 Add four circle primitives for the rounded corners*
1,1,$1+$1,$2,$3*
1,1,$1+$1,$4,$5*
1,1,$1+$1,$6,$7*
1,1,$1+$1,$8,$9*
0 Add four rect primitives between the rounded corners*
20,1,$1+$1,$2,$3,$4,$5,0*
20,1,$1+$1,$4,$5,$6,$7,0*
20,1,$1+$1,$6,$7,$8,$9,0*
20,1,$1+$1,$8,$9,$2,$3,0*%
G04 Aperture macros list end*
G04 #@! TA.AperFunction,ComponentPad*
%ADD10R,1.500000X1.500000*%
G04 #@! TD*
G04 #@! TA.AperFunction,ComponentPad*
%ADD11RoundRect,0.250002X1.699998X-1.699998X1.699998X1.699998X-1.699998X1.699998X-1.699998X-1.699998X0*%
G04 #@! TD*
G04 #@! TA.AperFunction,ComponentPad*
%ADD12C,3.900000*%
G04 #@! TD*
G04 #@! TA.AperFunction,ComponentPad*
%ADD13R,1.000000X1.000000*%
G04 #@! TD*
G04 #@! TA.AperFunction,ComponentPad*
%ADD14O,1.000000X1.000000*%
G04 #@! TD*
G04 #@! TA.AperFunction,ComponentPad*
%ADD15RoundRect,0.250001X0.799999X-0.799999X0.799999X0.799999X-0.799999X0.799999X-0.799999X-0.799999X0*%
G04 #@! TD*
G04 #@! TA.AperFunction,ComponentPad*
%ADD16C,2.100000*%
G04 #@! TD*
G04 #@! TA.AperFunction,ViaPad*
%ADD17C,0.800000*%
G04 #@! TD*
G04 #@! TA.AperFunction,Conductor*
%ADD18C,0.250000*%
G04 #@! TD*
G04 APERTURE END LIST*
D10*
G04 #@! TO.N,/SENS-2*
G04 #@! TO.C,J4*
X113700000Y-54199200D03*
X115200000Y-54199200D03*
G04 #@! TD*
G04 #@! TO.N,/SENS-1*
G04 #@! TO.C,J3*
X109500000Y-63900000D03*
X111000000Y-63900000D03*
G04 #@! TD*
D11*
G04 #@! TO.N,/5V-OUT*
G04 #@! TO.C,J1*
X131100000Y-61915000D03*
D12*
G04 #@! TO.N,/0V-OUT*
X131100000Y-56200000D03*
G04 #@! TD*
D13*
G04 #@! TO.N,/SDA*
G04 #@! TO.C,J5*
X120770000Y-64100000D03*
D14*
G04 #@! TO.N,/SCL*
X119500000Y-64100000D03*
G04 #@! TO.N,0*
X118230000Y-64100000D03*
G04 #@! TD*
D11*
G04 #@! TO.N,/5V-IN*
G04 #@! TO.C,J7*
X86800000Y-61915000D03*
D12*
G04 #@! TO.N,0*
X86800000Y-56200000D03*
G04 #@! TD*
D15*
G04 #@! TO.N,/DIN*
G04 #@! TO.C,J6*
X125000000Y-61510000D03*
D16*
X125000000Y-57700000D03*
G04 #@! TD*
D13*
G04 #@! TO.N,/MISO*
G04 #@! TO.C,J2*
X104160000Y-55600000D03*
D14*
G04 #@! TO.N,+5V*
X104160000Y-54330000D03*
G04 #@! TO.N,/SCK*
X105430000Y-55600000D03*
G04 #@! TO.N,/MOSI*
X105430000Y-54330000D03*
G04 #@! TO.N,/RESET*
X106700000Y-55600000D03*
G04 #@! TO.N,0*
X106700000Y-54330000D03*
G04 #@! TD*
D17*
G04 #@! TO.N,+5V*
X102400000Y-63800000D03*
X113750000Y-55750000D03*
X113012299Y-58112299D03*
G04 #@! TO.N,0*
X124600000Y-55000000D03*
X93500000Y-60200000D03*
X114750000Y-61500000D03*
X93250000Y-64250000D03*
G04 #@! TO.N,Net-(D2-Pad1)*
X108000000Y-60000000D03*
G04 #@! TO.N,Net-(C4-Pad1)*
X107900000Y-62200000D03*
G04 #@! TO.N,/RESET*
X102741907Y-58635072D03*
G04 #@! TO.N,/DIN*
X106300000Y-57100000D03*
G04 #@! TO.N,/MOSI*
X102900000Y-54875500D03*
X112800000Y-61400000D03*
G04 #@! TO.N,/MISO*
X94800000Y-55300000D03*
G04 #@! TO.N,Net-(U1-Pad13)*
X93500000Y-63000000D03*
G04 #@! TO.N,/\u0418\u0417\u041C*
X123250000Y-63750000D03*
X94750000Y-57750000D03*
X124467902Y-54009265D03*
G04 #@! TO.N,Net-(C7-Pad1)*
X107700000Y-56300000D03*
X117000000Y-63750000D03*
G04 #@! TO.N,Net-(C7-Pad2)*
X112887701Y-56375500D03*
G04 #@! TO.N,Net-(R1-Pad2)*
X115800000Y-57400000D03*
G04 #@! TO.N,/SCL*
X98200000Y-58500000D03*
G04 #@! TO.N,/SCK*
X94800000Y-56608712D03*
G04 #@! TO.N,Net-(R10-Pad2)*
X113700000Y-59024500D03*
X119000000Y-53619886D03*
G04 #@! TO.N,Net-(C5-Pad1)*
X102962299Y-60737701D03*
G04 #@! TO.N,Net-(D3-Pad1)*
X93500000Y-61750000D03*
G04 #@! TO.N,/\u0418\u041C\u041F*
X116000000Y-59000000D03*
X107800000Y-57400000D03*
G04 #@! TO.N,Net-(R3-Pad1)*
X94500000Y-60250000D03*
X108000000Y-54400000D03*
G04 #@! TO.N,Net-(R3-Pad2)*
X94500000Y-61250000D03*
G04 #@! TO.N,/SENS-2*
X122500000Y-58750000D03*
X123300000Y-54200000D03*
G04 #@! TD*
D18*
G04 #@! TO.N,/SENS-2*
X115200000Y-54199200D02*
X116449200Y-54199200D01*
X116650000Y-54400000D02*
X120900000Y-54400000D01*
X116449200Y-54199200D02*
X116650000Y-54400000D01*
G04 #@! TO.N,/SCL*
X119000000Y-62750000D02*
X119500000Y-63250000D01*
X109750000Y-60750000D02*
X111750000Y-62750000D01*
X111750000Y-62750000D02*
X119000000Y-62750000D01*
X119500000Y-63250000D02*
X119500000Y-64100000D01*
X106000000Y-60750000D02*
X109750000Y-60750000D01*
X105274511Y-61475489D02*
X106000000Y-60750000D01*
X101175489Y-61475489D02*
X105274511Y-61475489D01*
X98200000Y-58500000D02*
X101175489Y-61475489D01*
G04 #@! TO.N,/DIN*
X107700000Y-58500000D02*
X106300000Y-57100000D01*
X109000000Y-58500000D02*
X107700000Y-58500000D01*
X111175489Y-60675489D02*
X109000000Y-58500000D01*
X122175489Y-60675489D02*
X111175489Y-60675489D01*
X125000000Y-61510000D02*
X123010000Y-61510000D01*
X123010000Y-61510000D02*
X122175489Y-60675489D01*
G04 #@! TO.N,/\u0418\u0417\u041C*
X121750000Y-62250000D02*
X123250000Y-63750000D01*
X112000000Y-62250000D02*
X121750000Y-62250000D01*
X108750000Y-59000000D02*
X112000000Y-62250000D01*
X104000000Y-59500000D02*
X104500000Y-59000000D01*
X102000000Y-59500000D02*
X104000000Y-59500000D01*
X104500000Y-59000000D02*
X108750000Y-59000000D01*
X100250000Y-57750000D02*
X102000000Y-59500000D01*
X94750000Y-57750000D02*
X100250000Y-57750000D01*
G04 #@! TO.N,/SENS-2*
X121900000Y-54400000D02*
X122500000Y-55000000D01*
X120900000Y-54400000D02*
X121900000Y-54400000D01*
X122500000Y-58750000D02*
X122500000Y-55000000D01*
X122500000Y-55000000D02*
X123300000Y-54200000D01*
G04 #@! TO.N,/RESET*
X102741907Y-58635072D02*
X103664928Y-58635072D01*
X103664928Y-58635072D02*
X106700000Y-55600000D01*
G04 #@! TO.N,/MOSI*
X103250000Y-53500000D02*
X104000000Y-53500000D01*
X102900000Y-53850000D02*
X103250000Y-53500000D01*
X105430000Y-54330000D02*
X104605489Y-53505489D01*
X104605489Y-53505489D02*
X104005489Y-53505489D01*
X102900000Y-54875500D02*
X102900000Y-53850000D01*
X104000000Y-53500000D02*
X104005489Y-53505489D01*
G04 #@! TO.N,/MISO*
X104160000Y-55600000D02*
X95100000Y-55600000D01*
X95100000Y-55600000D02*
X94800000Y-55300000D01*
G04 #@! TO.N,/SCK*
X105430000Y-55600000D02*
X105430000Y-55979022D01*
X105430000Y-55979022D02*
X104800310Y-56608712D01*
X104800310Y-56608712D02*
X94800000Y-56608712D01*
G04 #@! TO.N,/\u0418\u041C\u041F*
X107812212Y-57387788D02*
X114387788Y-57387788D01*
X114387788Y-57387788D02*
X116000000Y-59000000D01*
X107800000Y-57400000D02*
X107812212Y-57387788D01*
G04 #@! TD*
M02*
