G04 #@! TF.GenerationSoftware,KiCad,Pcbnew,(6.0.0)*
G04 #@! TF.CreationDate,2022-01-12T21:25:53+03:00*
G04 #@! TF.ProjectId,svet,73766574-2e6b-4696-9361-645f70636258,rev?*
G04 #@! TF.SameCoordinates,Original*
G04 #@! TF.FileFunction,Soldermask,Bot*
G04 #@! TF.FilePolarity,Negative*
%FSLAX46Y46*%
G04 Gerber Fmt 4.6, Leading zero omitted, Abs format (unit mm)*
G04 Created by KiCad (PCBNEW (6.0.0)) date 2022-01-12 21:25:53*
%MOMM*%
%LPD*%
G01*
G04 APERTURE LIST*
G04 Aperture macros list*
%AMRoundRect*
0 Rectangle with rounded corners*
0 $1 Rounding radius*
0 $2 $3 $4 $5 $6 $7 $8 $9 X,Y pos of 4 corners*
0 Add a 4 corners polygon primitive as box body*
4,1,4,$2,$3,$4,$5,$6,$7,$8,$9,$2,$3,0*
0 Add four circle primitives for the rounded corners*
1,1,$1+$1,$2,$3*
1,1,$1+$1,$4,$5*
1,1,$1+$1,$6,$7*
1,1,$1+$1,$8,$9*
0 Add four rect primitives between the rounded corners*
20,1,$1+$1,$2,$3,$4,$5,0*
20,1,$1+$1,$4,$5,$6,$7,0*
20,1,$1+$1,$6,$7,$8,$9,0*
20,1,$1+$1,$8,$9,$2,$3,0*%
G04 Aperture macros list end*
%ADD10RoundRect,0.250002X1.699998X-1.699998X1.699998X1.699998X-1.699998X1.699998X-1.699998X-1.699998X0*%
%ADD11C,3.900000*%
%ADD12R,1.000000X1.000000*%
%ADD13O,1.000000X1.000000*%
%ADD14R,1.500000X1.500000*%
%ADD15RoundRect,0.250001X0.799999X-0.799999X0.799999X0.799999X-0.799999X0.799999X-0.799999X-0.799999X0*%
%ADD16C,2.100000*%
%ADD17RoundRect,0.625000X0.625000X-0.625000X0.625000X0.625000X-0.625000X0.625000X-0.625000X-0.625000X0*%
%ADD18RoundRect,0.150000X-0.587500X-0.150000X0.587500X-0.150000X0.587500X0.150000X-0.587500X0.150000X0*%
%ADD19RoundRect,0.237500X-0.300000X-0.237500X0.300000X-0.237500X0.300000X0.237500X-0.300000X0.237500X0*%
%ADD20RoundRect,0.237500X0.250000X0.237500X-0.250000X0.237500X-0.250000X-0.237500X0.250000X-0.237500X0*%
%ADD21RoundRect,0.237500X-0.250000X-0.237500X0.250000X-0.237500X0.250000X0.237500X-0.250000X0.237500X0*%
%ADD22RoundRect,0.237500X0.300000X0.237500X-0.300000X0.237500X-0.300000X-0.237500X0.300000X-0.237500X0*%
%ADD23RoundRect,0.237500X0.237500X-0.250000X0.237500X0.250000X-0.237500X0.250000X-0.237500X-0.250000X0*%
%ADD24R,0.600000X0.450000*%
%ADD25RoundRect,0.237500X0.237500X-0.300000X0.237500X0.300000X-0.237500X0.300000X-0.237500X-0.300000X0*%
G04 APERTURE END LIST*
D10*
G04 #@! TO.C,J1*
X141000000Y-61965000D03*
D11*
X141000000Y-56250000D03*
G04 #@! TD*
D12*
G04 #@! TO.C,J5*
X127952500Y-54135000D03*
D13*
X126682500Y-54135000D03*
X125412500Y-54135000D03*
G04 #@! TD*
D10*
G04 #@! TO.C,J7*
X86800000Y-61915000D03*
D11*
X86800000Y-56200000D03*
G04 #@! TD*
D14*
G04 #@! TO.C,J4*
X115500000Y-63250000D03*
X117000000Y-63250000D03*
G04 #@! TD*
D15*
G04 #@! TO.C,J6*
X134900000Y-61560000D03*
D16*
X134900000Y-57750000D03*
G04 #@! TD*
D12*
G04 #@! TO.C,J2*
X98540000Y-54500000D03*
D13*
X98540000Y-55770000D03*
X97270000Y-54500000D03*
X97270000Y-55770000D03*
X96000000Y-54500000D03*
X96000000Y-55770000D03*
G04 #@! TD*
D14*
G04 #@! TO.C,J3*
X123500000Y-54250000D03*
X122000000Y-54250000D03*
G04 #@! TD*
D17*
G04 #@! TO.C,J8*
X90470000Y-62000000D03*
X90470000Y-56285000D03*
G04 #@! TD*
D18*
G04 #@! TO.C,D2*
X126662500Y-63750000D03*
X126662500Y-61850000D03*
X128537500Y-62800000D03*
G04 #@! TD*
D19*
G04 #@! TO.C,C6*
X126945000Y-58600000D03*
X128670000Y-58600000D03*
G04 #@! TD*
D20*
G04 #@! TO.C,R6*
X128770000Y-60200000D03*
X126945000Y-60200000D03*
G04 #@! TD*
D21*
G04 #@! TO.C,R2*
X103087500Y-57000000D03*
X104912500Y-57000000D03*
G04 #@! TD*
D22*
G04 #@! TO.C,C2*
X97612500Y-57500000D03*
X95887500Y-57500000D03*
G04 #@! TD*
D19*
G04 #@! TO.C,C10*
X95887500Y-59250000D03*
X97612500Y-59250000D03*
G04 #@! TD*
D17*
G04 #@! TO.C,J9*
X137500000Y-61950000D03*
X137500000Y-56235000D03*
G04 #@! TD*
D23*
G04 #@! TO.C,R10*
X125100000Y-60312500D03*
X125100000Y-58487500D03*
G04 #@! TD*
G04 #@! TO.C,R9*
X120000000Y-56412500D03*
X120000000Y-54587500D03*
G04 #@! TD*
D20*
G04 #@! TO.C,R8*
X112412500Y-54250000D03*
X110587500Y-54250000D03*
G04 #@! TD*
D19*
G04 #@! TO.C,C5*
X93887500Y-62400000D03*
X95612500Y-62400000D03*
G04 #@! TD*
D20*
G04 #@! TO.C,R4*
X132125000Y-55300000D03*
X130300000Y-55300000D03*
G04 #@! TD*
G04 #@! TO.C,R7*
X112412500Y-55750000D03*
X110587500Y-55750000D03*
G04 #@! TD*
D23*
G04 #@! TO.C,R1*
X132700000Y-63112500D03*
X132700000Y-61287500D03*
G04 #@! TD*
D22*
G04 #@! TO.C,C4*
X99112500Y-62400000D03*
X97387500Y-62400000D03*
G04 #@! TD*
D24*
G04 #@! TO.C,D3*
X92150000Y-59200000D03*
X90050000Y-59200000D03*
G04 #@! TD*
D25*
G04 #@! TO.C,C7*
X118500000Y-56362500D03*
X118500000Y-54637500D03*
G04 #@! TD*
M02*
