G04 #@! TF.GenerationSoftware,KiCad,Pcbnew,(6.0.0)*
G04 #@! TF.CreationDate,2022-01-12T21:25:53+03:00*
G04 #@! TF.ProjectId,svet,73766574-2e6b-4696-9361-645f70636258,rev?*
G04 #@! TF.SameCoordinates,Original*
G04 #@! TF.FileFunction,Copper,L1,Top*
G04 #@! TF.FilePolarity,Positive*
%FSLAX46Y46*%
G04 Gerber Fmt 4.6, Leading zero omitted, Abs format (unit mm)*
G04 Created by KiCad (PCBNEW (6.0.0)) date 2022-01-12 21:25:53*
%MOMM*%
%LPD*%
G01*
G04 APERTURE LIST*
G04 Aperture macros list*
%AMRoundRect*
0 Rectangle with rounded corners*
0 $1 Rounding radius*
0 $2 $3 $4 $5 $6 $7 $8 $9 X,Y pos of 4 corners*
0 Add a 4 corners polygon primitive as box body*
4,1,4,$2,$3,$4,$5,$6,$7,$8,$9,$2,$3,0*
0 Add four circle primitives for the rounded corners*
1,1,$1+$1,$2,$3*
1,1,$1+$1,$4,$5*
1,1,$1+$1,$6,$7*
1,1,$1+$1,$8,$9*
0 Add four rect primitives between the rounded corners*
20,1,$1+$1,$2,$3,$4,$5,0*
20,1,$1+$1,$4,$5,$6,$7,0*
20,1,$1+$1,$6,$7,$8,$9,0*
20,1,$1+$1,$8,$9,$2,$3,0*%
G04 Aperture macros list end*
%ADD10C,0.300000*%
G04 #@! TA.AperFunction,NonConductor*
%ADD11C,0.300000*%
G04 #@! TD*
G04 #@! TA.AperFunction,SMDPad,CuDef*
%ADD12RoundRect,0.237500X-0.250000X-0.237500X0.250000X-0.237500X0.250000X0.237500X-0.250000X0.237500X0*%
G04 #@! TD*
G04 #@! TA.AperFunction,SMDPad,CuDef*
%ADD13RoundRect,0.237500X0.237500X-0.250000X0.237500X0.250000X-0.237500X0.250000X-0.237500X-0.250000X0*%
G04 #@! TD*
G04 #@! TA.AperFunction,ComponentPad*
%ADD14RoundRect,0.250002X1.699998X-1.699998X1.699998X1.699998X-1.699998X1.699998X-1.699998X-1.699998X0*%
G04 #@! TD*
G04 #@! TA.AperFunction,ComponentPad*
%ADD15C,3.900000*%
G04 #@! TD*
G04 #@! TA.AperFunction,ComponentPad*
%ADD16R,1.000000X1.000000*%
G04 #@! TD*
G04 #@! TA.AperFunction,ComponentPad*
%ADD17O,1.000000X1.000000*%
G04 #@! TD*
G04 #@! TA.AperFunction,SMDPad,CuDef*
%ADD18RoundRect,0.150000X0.825000X0.150000X-0.825000X0.150000X-0.825000X-0.150000X0.825000X-0.150000X0*%
G04 #@! TD*
G04 #@! TA.AperFunction,SMDPad,CuDef*
%ADD19R,2.290000X3.000000*%
G04 #@! TD*
G04 #@! TA.AperFunction,SMDPad,CuDef*
%ADD20R,1.950000X1.500000*%
G04 #@! TD*
G04 #@! TA.AperFunction,SMDPad,CuDef*
%ADD21RoundRect,0.237500X0.250000X0.237500X-0.250000X0.237500X-0.250000X-0.237500X0.250000X-0.237500X0*%
G04 #@! TD*
G04 #@! TA.AperFunction,SMDPad,CuDef*
%ADD22RoundRect,0.250000X0.262500X0.450000X-0.262500X0.450000X-0.262500X-0.450000X0.262500X-0.450000X0*%
G04 #@! TD*
G04 #@! TA.AperFunction,SMDPad,CuDef*
%ADD23R,0.450000X0.600000*%
G04 #@! TD*
G04 #@! TA.AperFunction,ComponentPad*
%ADD24R,1.500000X1.500000*%
G04 #@! TD*
G04 #@! TA.AperFunction,SMDPad,CuDef*
%ADD25RoundRect,0.150000X0.150000X-0.512500X0.150000X0.512500X-0.150000X0.512500X-0.150000X-0.512500X0*%
G04 #@! TD*
G04 #@! TA.AperFunction,SMDPad,CuDef*
%ADD26RoundRect,0.250000X-0.425000X0.537500X-0.425000X-0.537500X0.425000X-0.537500X0.425000X0.537500X0*%
G04 #@! TD*
G04 #@! TA.AperFunction,SMDPad,CuDef*
%ADD27RoundRect,0.237500X-0.237500X0.300000X-0.237500X-0.300000X0.237500X-0.300000X0.237500X0.300000X0*%
G04 #@! TD*
G04 #@! TA.AperFunction,ComponentPad*
%ADD28RoundRect,0.250001X0.799999X-0.799999X0.799999X0.799999X-0.799999X0.799999X-0.799999X-0.799999X0*%
G04 #@! TD*
G04 #@! TA.AperFunction,ComponentPad*
%ADD29C,2.100000*%
G04 #@! TD*
G04 #@! TA.AperFunction,SMDPad,CuDef*
%ADD30RoundRect,0.237500X-0.300000X-0.237500X0.300000X-0.237500X0.300000X0.237500X-0.300000X0.237500X0*%
G04 #@! TD*
G04 #@! TA.AperFunction,SMDPad,CuDef*
%ADD31RoundRect,0.150000X0.150000X-0.825000X0.150000X0.825000X-0.150000X0.825000X-0.150000X-0.825000X0*%
G04 #@! TD*
G04 #@! TA.AperFunction,ViaPad*
%ADD32C,0.800000*%
G04 #@! TD*
G04 #@! TA.AperFunction,Conductor*
%ADD33C,0.250000*%
G04 #@! TD*
G04 APERTURE END LIST*
D10*
D11*
X144821428Y-60928571D02*
X144107142Y-60928571D01*
X144035714Y-61642857D01*
X144107142Y-61571428D01*
X144250000Y-61500000D01*
X144607142Y-61500000D01*
X144750000Y-61571428D01*
X144821428Y-61642857D01*
X144892857Y-61785714D01*
X144892857Y-62142857D01*
X144821428Y-62285714D01*
X144750000Y-62357142D01*
X144607142Y-62428571D01*
X144250000Y-62428571D01*
X144107142Y-62357142D01*
X144035714Y-62285714D01*
X145321428Y-60928571D02*
X145821428Y-62428571D01*
X146321428Y-60928571D01*
X147107142Y-60928571D02*
X147392857Y-60928571D01*
X147535714Y-61000000D01*
X147678571Y-61142857D01*
X147750000Y-61428571D01*
X147750000Y-61928571D01*
X147678571Y-62214285D01*
X147535714Y-62357142D01*
X147392857Y-62428571D01*
X147107142Y-62428571D01*
X146964285Y-62357142D01*
X146821428Y-62214285D01*
X146750000Y-61928571D01*
X146750000Y-61428571D01*
X146821428Y-61142857D01*
X146964285Y-61000000D01*
X147107142Y-60928571D01*
X148392857Y-60928571D02*
X148392857Y-62142857D01*
X148464285Y-62285714D01*
X148535714Y-62357142D01*
X148678571Y-62428571D01*
X148964285Y-62428571D01*
X149107142Y-62357142D01*
X149178571Y-62285714D01*
X149250000Y-62142857D01*
X149250000Y-60928571D01*
X149750000Y-60928571D02*
X150607142Y-60928571D01*
X150178571Y-62428571D02*
X150178571Y-60928571D01*
D10*
D11*
X144392857Y-55678571D02*
X144535714Y-55678571D01*
X144678571Y-55750000D01*
X144750000Y-55821428D01*
X144821428Y-55964285D01*
X144892857Y-56250000D01*
X144892857Y-56607142D01*
X144821428Y-56892857D01*
X144750000Y-57035714D01*
X144678571Y-57107142D01*
X144535714Y-57178571D01*
X144392857Y-57178571D01*
X144250000Y-57107142D01*
X144178571Y-57035714D01*
X144107142Y-56892857D01*
X144035714Y-56607142D01*
X144035714Y-56250000D01*
X144107142Y-55964285D01*
X144178571Y-55821428D01*
X144250000Y-55750000D01*
X144392857Y-55678571D01*
X145321428Y-55678571D02*
X145821428Y-57178571D01*
X146321428Y-55678571D01*
X147107142Y-55678571D02*
X147392857Y-55678571D01*
X147535714Y-55750000D01*
X147678571Y-55892857D01*
X147750000Y-56178571D01*
X147750000Y-56678571D01*
X147678571Y-56964285D01*
X147535714Y-57107142D01*
X147392857Y-57178571D01*
X147107142Y-57178571D01*
X146964285Y-57107142D01*
X146821428Y-56964285D01*
X146750000Y-56678571D01*
X146750000Y-56178571D01*
X146821428Y-55892857D01*
X146964285Y-55750000D01*
X147107142Y-55678571D01*
X148392857Y-55678571D02*
X148392857Y-56892857D01*
X148464285Y-57035714D01*
X148535714Y-57107142D01*
X148678571Y-57178571D01*
X148964285Y-57178571D01*
X149107142Y-57107142D01*
X149178571Y-57035714D01*
X149250000Y-56892857D01*
X149250000Y-55678571D01*
X149750000Y-55678571D02*
X150607142Y-55678571D01*
X150178571Y-57178571D02*
X150178571Y-55678571D01*
D10*
D11*
X79142857Y-55678571D02*
X79285714Y-55678571D01*
X79428571Y-55750000D01*
X79500000Y-55821428D01*
X79571428Y-55964285D01*
X79642857Y-56250000D01*
X79642857Y-56607142D01*
X79571428Y-56892857D01*
X79500000Y-57035714D01*
X79428571Y-57107142D01*
X79285714Y-57178571D01*
X79142857Y-57178571D01*
X79000000Y-57107142D01*
X78928571Y-57035714D01*
X78857142Y-56892857D01*
X78785714Y-56607142D01*
X78785714Y-56250000D01*
X78857142Y-55964285D01*
X78928571Y-55821428D01*
X79000000Y-55750000D01*
X79142857Y-55678571D01*
X80071428Y-55678571D02*
X80571428Y-57178571D01*
X81071428Y-55678571D01*
X81571428Y-57178571D02*
X81571428Y-55678571D01*
X82285714Y-57178571D02*
X82285714Y-55678571D01*
X83142857Y-57178571D01*
X83142857Y-55678571D01*
D10*
D11*
X79571428Y-60928571D02*
X78857142Y-60928571D01*
X78785714Y-61642857D01*
X78857142Y-61571428D01*
X79000000Y-61500000D01*
X79357142Y-61500000D01*
X79500000Y-61571428D01*
X79571428Y-61642857D01*
X79642857Y-61785714D01*
X79642857Y-62142857D01*
X79571428Y-62285714D01*
X79500000Y-62357142D01*
X79357142Y-62428571D01*
X79000000Y-62428571D01*
X78857142Y-62357142D01*
X78785714Y-62285714D01*
X80071428Y-60928571D02*
X80571428Y-62428571D01*
X81071428Y-60928571D01*
X81571428Y-62428571D02*
X81571428Y-60928571D01*
X82285714Y-62428571D02*
X82285714Y-60928571D01*
X83142857Y-62428571D01*
X83142857Y-60928571D01*
D10*
D11*
X144750000Y-59678571D02*
X144750000Y-58178571D01*
X145107142Y-58178571D01*
X145321428Y-58250000D01*
X145464285Y-58392857D01*
X145535714Y-58535714D01*
X145607142Y-58821428D01*
X145607142Y-59035714D01*
X145535714Y-59321428D01*
X145464285Y-59464285D01*
X145321428Y-59607142D01*
X145107142Y-59678571D01*
X144750000Y-59678571D01*
X146178571Y-59250000D02*
X146892857Y-59250000D01*
X146035714Y-59678571D02*
X146535714Y-58178571D01*
X147035714Y-59678571D01*
X147321428Y-58178571D02*
X148178571Y-58178571D01*
X147750000Y-59678571D02*
X147750000Y-58178571D01*
X148607142Y-59250000D02*
X149321428Y-59250000D01*
X148464285Y-59678571D02*
X148964285Y-58178571D01*
X149464285Y-59678571D01*
D12*
G04 #@! TO.P,R11,1*
G04 #@! TO.N,+5V*
X110587500Y-55750000D03*
G04 #@! TO.P,R11,2*
G04 #@! TO.N,/SDA*
X112412500Y-55750000D03*
G04 #@! TD*
D13*
G04 #@! TO.P,R5,1*
G04 #@! TO.N,Net-(R3-Pad1)*
X114750000Y-56325000D03*
G04 #@! TO.P,R5,2*
G04 #@! TO.N,+5V*
X114750000Y-54500000D03*
G04 #@! TD*
D14*
G04 #@! TO.P,J1,1,Pin_1*
G04 #@! TO.N,/5V-OUT*
X141000000Y-61965000D03*
D15*
G04 #@! TO.P,J1,2,Pin_2*
G04 #@! TO.N,/0V-OUT*
X141000000Y-56250000D03*
G04 #@! TD*
D16*
G04 #@! TO.P,J5,1,Pin_1*
G04 #@! TO.N,/SDA*
X127952500Y-54135000D03*
D17*
G04 #@! TO.P,J5,2,Pin_2*
G04 #@! TO.N,/SCL*
X126682500Y-54135000D03*
G04 #@! TO.P,J5,3,Pin_3*
G04 #@! TO.N,0*
X125412500Y-54135000D03*
G04 #@! TD*
D14*
G04 #@! TO.P,J7,1,Pin_1*
G04 #@! TO.N,/5V-IN*
X86800000Y-61915000D03*
D15*
G04 #@! TO.P,J7,2,Pin_2*
G04 #@! TO.N,0*
X86800000Y-56200000D03*
G04 #@! TD*
D18*
G04 #@! TO.P,U2,1*
G04 #@! TO.N,Net-(R1-Pad2)*
X129475000Y-61005000D03*
G04 #@! TO.P,U2,2,-*
G04 #@! TO.N,Net-(R4-Pad2)*
X129475000Y-59735000D03*
G04 #@! TO.P,U2,3,+*
G04 #@! TO.N,Net-(C6-Pad2)*
X129475000Y-58465000D03*
G04 #@! TO.P,U2,4,V-*
G04 #@! TO.N,0*
X129475000Y-57195000D03*
G04 #@! TO.P,U2,5,+*
G04 #@! TO.N,/SENS-2*
X124525000Y-57195000D03*
G04 #@! TO.P,U2,6,-*
G04 #@! TO.N,Net-(R10-Pad2)*
X124525000Y-58465000D03*
G04 #@! TO.P,U2,7*
G04 #@! TO.N,Net-(D2-Pad1)*
X124525000Y-59735000D03*
G04 #@! TO.P,U2,8,V+*
G04 #@! TO.N,+5V*
X124525000Y-61005000D03*
D19*
G04 #@! TO.P,U2,9*
G04 #@! TO.N,N/C*
X127000000Y-59100000D03*
G04 #@! TD*
D20*
G04 #@! TO.P,Y1,1,1*
G04 #@! TO.N,Net-(C5-Pad1)*
X95175000Y-62950000D03*
G04 #@! TO.P,Y1,2,2*
G04 #@! TO.N,unconnected-(Y1-Pad2)*
X98025000Y-62950000D03*
G04 #@! TO.P,Y1,3,3*
G04 #@! TO.N,Net-(C4-Pad1)*
X98025000Y-60650000D03*
G04 #@! TO.P,Y1,4,4*
G04 #@! TO.N,unconnected-(Y1-Pad4)*
X95175000Y-60650000D03*
G04 #@! TD*
D12*
G04 #@! TO.P,R13,1*
G04 #@! TO.N,/\u0418\u041C\u041F*
X110837500Y-62400000D03*
G04 #@! TO.P,R13,2*
G04 #@! TO.N,/SENS-2*
X112662500Y-62400000D03*
G04 #@! TD*
D21*
G04 #@! TO.P,R3,1*
G04 #@! TO.N,Net-(R3-Pad1)*
X113162500Y-57250000D03*
G04 #@! TO.P,R3,2*
G04 #@! TO.N,/BUTT*
X111337500Y-57250000D03*
G04 #@! TD*
D22*
G04 #@! TO.P,F1,1*
G04 #@! TO.N,Net-(D3-Pad1)*
X92225000Y-62100000D03*
G04 #@! TO.P,F1,2*
G04 #@! TO.N,+5V*
X90400000Y-62100000D03*
G04 #@! TD*
D23*
G04 #@! TO.P,D1,1,K*
G04 #@! TO.N,+5V*
X90500000Y-60100000D03*
G04 #@! TO.P,D1,2,A*
G04 #@! TO.N,0*
X90500000Y-58000000D03*
G04 #@! TD*
D24*
G04 #@! TO.P,J4,1,Pin_1*
G04 #@! TO.N,/SENS-2*
X115500000Y-63250000D03*
G04 #@! TO.P,J4,2,Pin_2*
X117000000Y-63250000D03*
G04 #@! TD*
D25*
G04 #@! TO.P,U3,1,OUT*
G04 #@! TO.N,Net-(R3-Pad1)*
X116750000Y-56750000D03*
G04 #@! TO.P,U3,2,VSS*
G04 #@! TO.N,0*
X117700000Y-56750000D03*
G04 #@! TO.P,U3,3,SNSK*
G04 #@! TO.N,Net-(C7-Pad1)*
X118650000Y-56750000D03*
G04 #@! TO.P,U3,4,SNS*
G04 #@! TO.N,Net-(C7-Pad2)*
X118650000Y-54475000D03*
G04 #@! TO.P,U3,5,VDD*
G04 #@! TO.N,+5V*
X117700000Y-54475000D03*
G04 #@! TO.P,U3,6,SYNC*
G04 #@! TO.N,unconnected-(U3-Pad6)*
X116750000Y-54475000D03*
G04 #@! TD*
D26*
G04 #@! TO.P,C1,1*
G04 #@! TO.N,+5V*
X93400000Y-55562500D03*
G04 #@! TO.P,C1,2*
G04 #@! TO.N,0*
X93400000Y-58437500D03*
G04 #@! TD*
D27*
G04 #@! TO.P,C8,1*
G04 #@! TO.N,/SENS-1*
X120250000Y-54637500D03*
G04 #@! TO.P,C8,2*
G04 #@! TO.N,0*
X120250000Y-56362500D03*
G04 #@! TD*
D28*
G04 #@! TO.P,J6,1,Pin_1*
G04 #@! TO.N,/DIN*
X134900000Y-61560000D03*
D29*
G04 #@! TO.P,J6,2,Pin_2*
X134900000Y-57750000D03*
G04 #@! TD*
D12*
G04 #@! TO.P,R12,1*
G04 #@! TO.N,+5V*
X110587500Y-54250000D03*
G04 #@! TO.P,R12,2*
G04 #@! TO.N,/SCL*
X112412500Y-54250000D03*
G04 #@! TD*
D30*
G04 #@! TO.P,C3,1*
G04 #@! TO.N,0*
X110037500Y-59300000D03*
G04 #@! TO.P,C3,2*
G04 #@! TO.N,/\u0418\u0417\u041C*
X111762500Y-59300000D03*
G04 #@! TD*
D16*
G04 #@! TO.P,J2,1,Pin_1*
G04 #@! TO.N,/MISO*
X98540000Y-54500000D03*
D17*
G04 #@! TO.P,J2,2,Pin_2*
G04 #@! TO.N,+5V*
X98540000Y-55770000D03*
G04 #@! TO.P,J2,3,Pin_3*
G04 #@! TO.N,/SCK*
X97270000Y-54500000D03*
G04 #@! TO.P,J2,4,Pin_4*
G04 #@! TO.N,/MOSI*
X97270000Y-55770000D03*
G04 #@! TO.P,J2,5,Pin_5*
G04 #@! TO.N,/RESET*
X96000000Y-54500000D03*
G04 #@! TO.P,J2,6,Pin_6*
G04 #@! TO.N,0*
X96000000Y-55770000D03*
G04 #@! TD*
D30*
G04 #@! TO.P,C9,1*
G04 #@! TO.N,0*
X110037500Y-60800000D03*
G04 #@! TO.P,C9,2*
G04 #@! TO.N,/SENS-2*
X111762500Y-60800000D03*
G04 #@! TD*
D31*
G04 #@! TO.P,U1,1,VCC*
G04 #@! TO.N,+5V*
X100750000Y-61000000D03*
G04 #@! TO.P,U1,2,XTAL1/PB0*
G04 #@! TO.N,Net-(C4-Pad1)*
X102020000Y-61000000D03*
G04 #@! TO.P,U1,3,XTAL2/PB1*
G04 #@! TO.N,Net-(C5-Pad1)*
X103290000Y-61000000D03*
G04 #@! TO.P,U1,4,~{RESET}/PB3*
G04 #@! TO.N,/RESET*
X104560000Y-61000000D03*
G04 #@! TO.P,U1,5,PB2*
G04 #@! TO.N,/DIN*
X105830000Y-61000000D03*
G04 #@! TO.P,U1,6,PA7*
G04 #@! TO.N,/\u0418\u041C\u041F*
X107100000Y-61000000D03*
G04 #@! TO.P,U1,7,PA6*
G04 #@! TO.N,/MOSI*
X108370000Y-61000000D03*
G04 #@! TO.P,U1,8,PA5*
G04 #@! TO.N,/MISO*
X108370000Y-56050000D03*
G04 #@! TO.P,U1,9,PA4*
G04 #@! TO.N,/SCK*
X107100000Y-56050000D03*
G04 #@! TO.P,U1,10,PA3*
G04 #@! TO.N,/BUTT*
X105830000Y-56050000D03*
G04 #@! TO.P,U1,11,PA2*
G04 #@! TO.N,/\u0418\u0417\u041C*
X104560000Y-56050000D03*
G04 #@! TO.P,U1,12,PA1*
G04 #@! TO.N,unconnected-(U1-Pad12)*
X103290000Y-56050000D03*
G04 #@! TO.P,U1,13,AREF/PA0*
G04 #@! TO.N,/REF*
X102020000Y-56050000D03*
G04 #@! TO.P,U1,14,GND*
G04 #@! TO.N,0*
X100750000Y-56050000D03*
G04 #@! TD*
D24*
G04 #@! TO.P,J3,1,Pin_1*
G04 #@! TO.N,/SENS-1*
X123500000Y-54250000D03*
G04 #@! TO.P,J3,2,Pin_2*
X122000000Y-54250000D03*
G04 #@! TD*
D32*
G04 #@! TO.N,/DIN*
X119800000Y-62300000D03*
X113600000Y-63500000D03*
G04 #@! TO.N,+5V*
X99750000Y-60250000D03*
X102750000Y-58000000D03*
X98600394Y-58149606D03*
G04 #@! TO.N,0*
X131300000Y-57600000D03*
X117750000Y-58000000D03*
X109500000Y-62000000D03*
X101512299Y-57987701D03*
X93500000Y-60200000D03*
G04 #@! TO.N,Net-(D2-Pad1)*
X122600000Y-60200000D03*
G04 #@! TO.N,Net-(C6-Pad2)*
X131300000Y-58800000D03*
G04 #@! TO.N,Net-(C4-Pad1)*
X100250000Y-62750000D03*
G04 #@! TO.N,/RESET*
X99813978Y-56250000D03*
X104500000Y-59500000D03*
G04 #@! TO.N,/MOSI*
X108600000Y-58100000D03*
X99750000Y-57250000D03*
G04 #@! TO.N,/\u0418\u0417\u041C*
X104500000Y-54500000D03*
X131200000Y-62500000D03*
X112900000Y-59300000D03*
G04 #@! TO.N,/SDA*
X114400000Y-58200000D03*
X113500000Y-55750000D03*
G04 #@! TO.N,Net-(C7-Pad1)*
X118750000Y-58000000D03*
G04 #@! TO.N,Net-(C7-Pad2)*
X119250000Y-53500000D03*
G04 #@! TO.N,Net-(R1-Pad2)*
X131300000Y-61300000D03*
G04 #@! TO.N,Net-(R4-Pad2)*
X131400000Y-60200000D03*
G04 #@! TO.N,/SCL*
X115400000Y-58200000D03*
X113500000Y-54250000D03*
G04 #@! TO.N,/SCK*
X108762299Y-53737701D03*
X107000000Y-54500000D03*
G04 #@! TO.N,Net-(R10-Pad2)*
X122500000Y-59000000D03*
G04 #@! TO.N,Net-(C5-Pad1)*
X103300000Y-63400000D03*
X92750000Y-63750000D03*
G04 #@! TO.N,Net-(D3-Pad1)*
X93400000Y-61300000D03*
G04 #@! TO.N,/SENS-2*
X121400000Y-60200000D03*
G04 #@! TO.N,/REF*
X102000000Y-54500000D03*
G04 #@! TO.N,/BUTT*
X110250000Y-57250000D03*
X105750000Y-54500000D03*
G04 #@! TD*
D33*
G04 #@! TO.N,+5V*
X92100000Y-54100000D02*
X92300000Y-53900000D01*
X92300000Y-53900000D02*
X93100000Y-53900000D01*
X92100000Y-60400000D02*
X92100000Y-54100000D01*
X91600000Y-60900000D02*
X92100000Y-60400000D01*
X93100000Y-53900000D02*
X93400000Y-54200000D01*
X90900000Y-60900000D02*
X91600000Y-60900000D01*
G04 #@! TO.N,0*
X93400000Y-58437500D02*
X93400000Y-60100000D01*
X93400000Y-60100000D02*
X93500000Y-60200000D01*
G04 #@! TO.N,+5V*
X94700000Y-53900000D02*
X95000000Y-54200000D01*
X93700000Y-53900000D02*
X94700000Y-53900000D01*
X95000000Y-54200000D02*
X95000000Y-54500000D01*
X93400000Y-54200000D02*
X93700000Y-53900000D01*
X93400000Y-55562500D02*
X93400000Y-54200000D01*
G04 #@! TO.N,Net-(C4-Pad1)*
X99825000Y-61425000D02*
X99825000Y-62075000D01*
X98025000Y-60650000D02*
X99050000Y-60650000D01*
X99050000Y-60650000D02*
X99825000Y-61425000D01*
X99825000Y-62075000D02*
X100250000Y-62500000D01*
G04 #@! TO.N,Net-(C5-Pad1)*
X103290000Y-63310000D02*
X103290000Y-61000000D01*
X103300000Y-63400000D02*
X103290000Y-63310000D01*
X93550000Y-62950000D02*
X92750000Y-63750000D01*
X95175000Y-62950000D02*
X93550000Y-62950000D01*
G04 #@! TO.N,Net-(D3-Pad1)*
X93300000Y-62100000D02*
X93400000Y-62000000D01*
X92225000Y-62100000D02*
X93300000Y-62100000D01*
X93400000Y-62000000D02*
X93400000Y-61300000D01*
G04 #@! TO.N,/DIN*
X105830000Y-62920000D02*
X105830000Y-61000000D01*
X106410000Y-63500000D02*
X105830000Y-62920000D01*
X113600000Y-63500000D02*
X106410000Y-63500000D01*
X134300000Y-63700000D02*
X134900000Y-63100000D01*
X134900000Y-63100000D02*
X134900000Y-61560000D01*
X130000000Y-63700000D02*
X134300000Y-63700000D01*
G04 #@! TO.N,/\u0418\u0417\u041C*
X120200000Y-60800000D02*
X114400000Y-60800000D01*
X122200000Y-61600000D02*
X121000000Y-61600000D01*
X121000000Y-61600000D02*
X120200000Y-60800000D01*
X114400000Y-60800000D02*
X112900000Y-59300000D01*
X123100000Y-62500000D02*
X122200000Y-61600000D01*
X131200000Y-62500000D02*
X123100000Y-62500000D01*
G04 #@! TO.N,/DIN*
X129500000Y-63200000D02*
X130000000Y-63700000D01*
X120700000Y-63200000D02*
X129500000Y-63200000D01*
X119800000Y-62300000D02*
X120700000Y-63200000D01*
G04 #@! TO.N,/\u0418\u041C\u041F*
X110512989Y-62724511D02*
X107624511Y-62724511D01*
X110837500Y-62400000D02*
X110512989Y-62724511D01*
X107100000Y-61000000D02*
X107100000Y-62200000D01*
X107624511Y-62724511D02*
X107100000Y-62200000D01*
G04 #@! TO.N,/SENS-2*
X114550000Y-63250000D02*
X113700000Y-62400000D01*
X115500000Y-63250000D02*
X114550000Y-63250000D01*
X113200000Y-60800000D02*
X113800000Y-61400000D01*
X113800000Y-62300000D02*
X113700000Y-62400000D01*
X113700000Y-62400000D02*
X112662500Y-62400000D01*
X111762500Y-60800000D02*
X113200000Y-60800000D01*
X113800000Y-61400000D02*
X113800000Y-62300000D01*
G04 #@! TO.N,0*
X109100000Y-61100000D02*
X109400000Y-60800000D01*
X109100000Y-61600000D02*
X109100000Y-61100000D01*
X109500000Y-62000000D02*
X109100000Y-61600000D01*
X109100000Y-60500000D02*
X109100000Y-59400000D01*
X109100000Y-59400000D02*
X109200000Y-59300000D01*
X109200000Y-59300000D02*
X110037500Y-59300000D01*
X110037500Y-60800000D02*
X109400000Y-60800000D01*
X109400000Y-60800000D02*
X109100000Y-60500000D01*
G04 #@! TO.N,/\u0418\u0417\u041C*
X111762500Y-59300000D02*
X112900000Y-59300000D01*
G04 #@! TO.N,+5V*
X121095000Y-61005000D02*
X124525000Y-61005000D01*
X113000000Y-58300000D02*
X114899520Y-60199520D01*
X110200000Y-58300000D02*
X113000000Y-58300000D01*
X114899520Y-60199520D02*
X120289520Y-60199520D01*
X120289520Y-60199520D02*
X121095000Y-61005000D01*
X109000000Y-57100000D02*
X110200000Y-58300000D01*
X89800000Y-60900000D02*
X90350000Y-60900000D01*
X114450480Y-53450480D02*
X109799520Y-53450480D01*
X109500000Y-54000000D02*
X109750000Y-54250000D01*
X93400000Y-55962500D02*
X93400000Y-54600000D01*
X100250000Y-59750000D02*
X100250000Y-59410332D01*
X98500000Y-56750000D02*
X98540000Y-56790000D01*
X90600000Y-60900000D02*
X90900000Y-60900000D01*
X114450480Y-53450480D02*
X117450480Y-53450480D01*
X100294834Y-59455166D02*
X100669834Y-59830166D01*
X89600000Y-62100000D02*
X89375000Y-61875000D01*
X95000000Y-54500000D02*
X95000000Y-56500000D01*
X90400000Y-62100000D02*
X89600000Y-62100000D01*
X109750000Y-55750000D02*
X109500000Y-56000000D01*
X114750000Y-54500000D02*
X114750000Y-53750000D01*
X109500000Y-54000000D02*
X109500000Y-54500000D01*
X109000000Y-57100000D02*
X109000000Y-56500000D01*
X98540000Y-55770000D02*
X98540000Y-56790000D01*
X114750000Y-53750000D02*
X115012020Y-53487980D01*
X110587500Y-55750000D02*
X109750000Y-55750000D01*
X107099040Y-58000000D02*
X107749520Y-57349520D01*
X109500000Y-54500000D02*
X109750000Y-54250000D01*
X117450480Y-53450480D02*
X117700000Y-53700000D01*
X109750000Y-54250000D02*
X110587500Y-54250000D01*
X100250000Y-59750000D02*
X99750000Y-60250000D01*
X117700000Y-53700000D02*
X117700000Y-54475000D01*
X90400000Y-60900000D02*
X90500000Y-60800000D01*
X100589668Y-59750000D02*
X100669834Y-59830166D01*
X109500000Y-54750000D02*
X109500000Y-54500000D01*
X90500000Y-60800000D02*
X90500000Y-60100000D01*
X109799520Y-53450480D02*
X109500000Y-53750000D01*
X108750480Y-57349520D02*
X109000000Y-57100000D01*
X109500000Y-55250000D02*
X109500000Y-55500000D01*
X109500000Y-53750000D02*
X109500000Y-54000000D01*
X100250000Y-59410332D02*
X100044834Y-59205166D01*
X90500000Y-60800000D02*
X90600000Y-60900000D01*
X98600394Y-58149606D02*
X98989274Y-58149606D01*
X90350000Y-60900000D02*
X90400000Y-60900000D01*
X89375000Y-61325000D02*
X89800000Y-60900000D01*
X117487980Y-53487980D02*
X117700000Y-53700000D01*
X95000000Y-56500000D02*
X95250000Y-56750000D01*
X109750000Y-55750000D02*
X109500000Y-55500000D01*
X107749520Y-57349520D02*
X108750480Y-57349520D01*
X114750000Y-53750000D02*
X114450480Y-53450480D01*
X102750000Y-58000000D02*
X107099040Y-58000000D01*
X109000000Y-56500000D02*
X109500000Y-56000000D01*
X100044834Y-59205166D02*
X100294834Y-59455166D01*
X89375000Y-61875000D02*
X89375000Y-61325000D01*
X95250000Y-56750000D02*
X98500000Y-56750000D01*
X109500000Y-56000000D02*
X109500000Y-55500000D01*
X98540000Y-57460000D02*
X98540000Y-58089212D01*
X90350000Y-60900000D02*
X90900000Y-60900000D01*
X98540000Y-57460000D02*
X98540000Y-57790000D01*
X109500000Y-55250000D02*
X109500000Y-54750000D01*
X100750000Y-59910332D02*
X100750000Y-61000000D01*
X98540000Y-56790000D02*
X98540000Y-57460000D01*
X100750000Y-60000000D02*
X100750000Y-61000000D01*
X98989274Y-58149606D02*
X100044834Y-59205166D01*
X100250000Y-59750000D02*
X100589668Y-59750000D01*
X100669834Y-59830166D02*
X100750000Y-59910332D01*
X98540000Y-58089212D02*
X98600394Y-58149606D01*
G04 #@! TO.N,0*
X129475000Y-57195000D02*
X130895000Y-57195000D01*
X119024614Y-58750000D02*
X118750000Y-58750000D01*
X100750000Y-57225402D02*
X101512299Y-57987701D01*
X118000000Y-58750000D02*
X117750000Y-58500000D01*
X117750000Y-58500000D02*
X117750000Y-58000000D01*
X100750000Y-56050000D02*
X100750000Y-57225402D01*
X118750000Y-58750000D02*
X118000000Y-58750000D01*
X90500000Y-58000000D02*
X90500000Y-56800000D01*
X86800000Y-56200000D02*
X89900000Y-56200000D01*
X120250000Y-56362500D02*
X120250000Y-57524614D01*
X117700000Y-57950000D02*
X117750000Y-58000000D01*
X117700000Y-56750000D02*
X117700000Y-57950000D01*
X90500000Y-56800000D02*
X89900000Y-56200000D01*
X120250000Y-57524614D02*
X119024614Y-58750000D01*
X130895000Y-57195000D02*
X131300000Y-57600000D01*
G04 #@! TO.N,Net-(D2-Pad1)*
X124525000Y-59735000D02*
X123065000Y-59735000D01*
X123065000Y-59735000D02*
X122600000Y-60200000D01*
G04 #@! TO.N,Net-(C6-Pad2)*
X129475000Y-58465000D02*
X130965000Y-58465000D01*
X130965000Y-58465000D02*
X131300000Y-58800000D01*
G04 #@! TO.N,Net-(C4-Pad1)*
X101750000Y-63000000D02*
X100500000Y-63000000D01*
X102020000Y-61000000D02*
X102020000Y-62730000D01*
X102020000Y-62730000D02*
X101750000Y-63000000D01*
X100250000Y-62500000D02*
X100250000Y-62750000D01*
X100500000Y-63000000D02*
X100250000Y-62750000D01*
G04 #@! TO.N,/RESET*
X99000000Y-56975386D02*
X99000000Y-57524614D01*
X104560000Y-59810000D02*
X104560000Y-61000000D01*
X104560000Y-61000000D02*
X104560000Y-59560000D01*
X100975386Y-59500000D02*
X104500000Y-59500000D01*
X104250000Y-59500000D02*
X104560000Y-59810000D01*
X99000000Y-57524614D02*
X100975386Y-59500000D01*
X99813978Y-56250000D02*
X99725386Y-56250000D01*
X104560000Y-59560000D02*
X104500000Y-59500000D01*
X99725386Y-56250000D02*
X99000000Y-56975386D01*
G04 #@! TO.N,/DIN*
X134900000Y-57750000D02*
X134900000Y-61560000D01*
G04 #@! TO.N,/MOSI*
X107950000Y-59200000D02*
X106000000Y-59200000D01*
X108600000Y-58300000D02*
X108600000Y-59400000D01*
X101250000Y-58750000D02*
X99750000Y-57250000D01*
X106000000Y-59200000D02*
X105550000Y-58750000D01*
X108370000Y-59620000D02*
X107950000Y-59200000D01*
X108380000Y-59620000D02*
X108370000Y-59620000D01*
X105550000Y-58750000D02*
X101250000Y-58750000D01*
X108370000Y-59620000D02*
X108370000Y-61000000D01*
X108600000Y-59400000D02*
X108380000Y-59620000D01*
G04 #@! TO.N,/MISO*
X108370000Y-56050000D02*
X108370000Y-54370000D01*
X99500000Y-54500000D02*
X98540000Y-54500000D01*
X108370000Y-54370000D02*
X107750000Y-53750000D01*
X100250000Y-53750000D02*
X99500000Y-54500000D01*
X107750000Y-53750000D02*
X100250000Y-53750000D01*
G04 #@! TO.N,/\u0418\u0417\u041C*
X104560000Y-54560000D02*
X104500000Y-54500000D01*
X104560000Y-56050000D02*
X104560000Y-54560000D01*
G04 #@! TO.N,/SDA*
X123250000Y-56250000D02*
X126655000Y-56250000D01*
X114400000Y-58800000D02*
X115350000Y-59750000D01*
X119750000Y-59750000D02*
X123250000Y-56250000D01*
X115350000Y-59750000D02*
X119750000Y-59750000D01*
X127952500Y-54952500D02*
X127952500Y-54135000D01*
X114400000Y-58200000D02*
X114400000Y-58800000D01*
X126655000Y-56250000D02*
X127952500Y-54952500D01*
X113500000Y-55750000D02*
X112412500Y-55750000D01*
G04 #@! TO.N,Net-(C7-Pad1)*
X118650000Y-57900000D02*
X118750000Y-58000000D01*
X118650000Y-56750000D02*
X118650000Y-57900000D01*
G04 #@! TO.N,Net-(C7-Pad2)*
X118650000Y-53600000D02*
X118750000Y-53500000D01*
X118750000Y-53500000D02*
X119000000Y-53500000D01*
X118650000Y-54475000D02*
X118650000Y-53600000D01*
X119000000Y-53500000D02*
X119250000Y-53500000D01*
G04 #@! TO.N,Net-(R1-Pad2)*
X131005000Y-61005000D02*
X131300000Y-61300000D01*
X129475000Y-61005000D02*
X131005000Y-61005000D01*
G04 #@! TO.N,Net-(R4-Pad2)*
X130935000Y-59735000D02*
X131400000Y-60200000D01*
X129475000Y-59735000D02*
X130935000Y-59735000D01*
G04 #@! TO.N,/SCL*
X126682500Y-54932500D02*
X126682500Y-54135000D01*
X115400000Y-58700000D02*
X115950000Y-59250000D01*
X115950000Y-59250000D02*
X119500000Y-59250000D01*
X125865000Y-55750000D02*
X126682500Y-54932500D01*
X119500000Y-59250000D02*
X123000000Y-55750000D01*
X115400000Y-58200000D02*
X115400000Y-58700000D01*
X113500000Y-54250000D02*
X112412500Y-54250000D01*
X123000000Y-55750000D02*
X125865000Y-55750000D01*
G04 #@! TO.N,/SCK*
X108750000Y-53750000D02*
X108762299Y-53737701D01*
X97699520Y-53300480D02*
X108300480Y-53300480D01*
X107100000Y-56050000D02*
X107100000Y-54600000D01*
X108300480Y-53300480D02*
X108750000Y-53750000D01*
X97270000Y-54500000D02*
X97270000Y-53730000D01*
X97270000Y-53730000D02*
X97699520Y-53300480D01*
X107100000Y-54600000D02*
X107000000Y-54500000D01*
G04 #@! TO.N,Net-(R10-Pad2)*
X123035000Y-58465000D02*
X122500000Y-59000000D01*
X124525000Y-58465000D02*
X123035000Y-58465000D01*
G04 #@! TO.N,/SENS-1*
X120250000Y-54637500D02*
X120250000Y-54000000D01*
X120500000Y-53750000D02*
X121500000Y-53750000D01*
X121500000Y-53750000D02*
X122000000Y-54250000D01*
X120250000Y-54000000D02*
X120500000Y-53750000D01*
G04 #@! TO.N,/SENS-2*
X121400000Y-58900000D02*
X121400000Y-60200000D01*
X124525000Y-57195000D02*
X123105000Y-57195000D01*
X123105000Y-57195000D02*
X122400000Y-57900000D01*
X122400000Y-57900000D02*
X121400000Y-58900000D01*
G04 #@! TO.N,/REF*
X102020000Y-56050000D02*
X102020000Y-54520000D01*
X102020000Y-54520000D02*
X102000000Y-54500000D01*
G04 #@! TO.N,Net-(R3-Pad1)*
X116750000Y-56750000D02*
X116750000Y-57500000D01*
X116150000Y-57750000D02*
X115650000Y-57250000D01*
X114750000Y-57000000D02*
X114750000Y-56325000D01*
X116750000Y-57500000D02*
X116500000Y-57750000D01*
X113162500Y-57250000D02*
X114500000Y-57250000D01*
X114500000Y-57250000D02*
X115000000Y-57250000D01*
X114500000Y-57250000D02*
X114750000Y-57000000D01*
X116500000Y-57750000D02*
X116150000Y-57750000D01*
X114750000Y-57000000D02*
X115000000Y-57250000D01*
X115650000Y-57250000D02*
X115000000Y-57250000D01*
G04 #@! TO.N,/BUTT*
X105830000Y-56050000D02*
X105830000Y-54580000D01*
X105830000Y-54580000D02*
X105750000Y-54500000D01*
X110250000Y-57250000D02*
X111337500Y-57250000D01*
G04 #@! TD*
M02*
