G04 #@! TF.GenerationSoftware,KiCad,Pcbnew,(6.0.0)*
G04 #@! TF.CreationDate,2022-01-12T21:25:53+03:00*
G04 #@! TF.ProjectId,svet,73766574-2e6b-4696-9361-645f70636258,rev?*
G04 #@! TF.SameCoordinates,Original*
G04 #@! TF.FileFunction,Soldermask,Top*
G04 #@! TF.FilePolarity,Negative*
%FSLAX46Y46*%
G04 Gerber Fmt 4.6, Leading zero omitted, Abs format (unit mm)*
G04 Created by KiCad (PCBNEW (6.0.0)) date 2022-01-12 21:25:53*
%MOMM*%
%LPD*%
G01*
G04 APERTURE LIST*
G04 Aperture macros list*
%AMRoundRect*
0 Rectangle with rounded corners*
0 $1 Rounding radius*
0 $2 $3 $4 $5 $6 $7 $8 $9 X,Y pos of 4 corners*
0 Add a 4 corners polygon primitive as box body*
4,1,4,$2,$3,$4,$5,$6,$7,$8,$9,$2,$3,0*
0 Add four circle primitives for the rounded corners*
1,1,$1+$1,$2,$3*
1,1,$1+$1,$4,$5*
1,1,$1+$1,$6,$7*
1,1,$1+$1,$8,$9*
0 Add four rect primitives between the rounded corners*
20,1,$1+$1,$2,$3,$4,$5,0*
20,1,$1+$1,$4,$5,$6,$7,0*
20,1,$1+$1,$6,$7,$8,$9,0*
20,1,$1+$1,$8,$9,$2,$3,0*%
G04 Aperture macros list end*
%ADD10RoundRect,0.237500X-0.250000X-0.237500X0.250000X-0.237500X0.250000X0.237500X-0.250000X0.237500X0*%
%ADD11RoundRect,0.237500X0.237500X-0.250000X0.237500X0.250000X-0.237500X0.250000X-0.237500X-0.250000X0*%
%ADD12RoundRect,0.250002X1.699998X-1.699998X1.699998X1.699998X-1.699998X1.699998X-1.699998X-1.699998X0*%
%ADD13C,3.900000*%
%ADD14R,1.000000X1.000000*%
%ADD15O,1.000000X1.000000*%
%ADD16RoundRect,0.150000X0.825000X0.150000X-0.825000X0.150000X-0.825000X-0.150000X0.825000X-0.150000X0*%
%ADD17R,2.290000X3.000000*%
%ADD18R,1.950000X1.500000*%
%ADD19RoundRect,0.237500X0.250000X0.237500X-0.250000X0.237500X-0.250000X-0.237500X0.250000X-0.237500X0*%
%ADD20RoundRect,0.250000X0.262500X0.450000X-0.262500X0.450000X-0.262500X-0.450000X0.262500X-0.450000X0*%
%ADD21R,0.450000X0.600000*%
%ADD22R,1.500000X1.500000*%
%ADD23RoundRect,0.150000X0.150000X-0.512500X0.150000X0.512500X-0.150000X0.512500X-0.150000X-0.512500X0*%
%ADD24RoundRect,0.250000X-0.425000X0.537500X-0.425000X-0.537500X0.425000X-0.537500X0.425000X0.537500X0*%
%ADD25RoundRect,0.237500X-0.237500X0.300000X-0.237500X-0.300000X0.237500X-0.300000X0.237500X0.300000X0*%
%ADD26RoundRect,0.250001X0.799999X-0.799999X0.799999X0.799999X-0.799999X0.799999X-0.799999X-0.799999X0*%
%ADD27C,2.100000*%
%ADD28RoundRect,0.237500X-0.300000X-0.237500X0.300000X-0.237500X0.300000X0.237500X-0.300000X0.237500X0*%
%ADD29RoundRect,0.150000X0.150000X-0.825000X0.150000X0.825000X-0.150000X0.825000X-0.150000X-0.825000X0*%
G04 APERTURE END LIST*
D10*
G04 #@! TO.C,R11*
X110587500Y-55750000D03*
X112412500Y-55750000D03*
G04 #@! TD*
D11*
G04 #@! TO.C,R5*
X114750000Y-56325000D03*
X114750000Y-54500000D03*
G04 #@! TD*
D12*
G04 #@! TO.C,J1*
X141000000Y-61965000D03*
D13*
X141000000Y-56250000D03*
G04 #@! TD*
D14*
G04 #@! TO.C,J5*
X127952500Y-54135000D03*
D15*
X126682500Y-54135000D03*
X125412500Y-54135000D03*
G04 #@! TD*
D12*
G04 #@! TO.C,J7*
X86800000Y-61915000D03*
D13*
X86800000Y-56200000D03*
G04 #@! TD*
D16*
G04 #@! TO.C,U2*
X129475000Y-61005000D03*
X129475000Y-59735000D03*
X129475000Y-58465000D03*
X129475000Y-57195000D03*
X124525000Y-57195000D03*
X124525000Y-58465000D03*
X124525000Y-59735000D03*
X124525000Y-61005000D03*
D17*
X127000000Y-59100000D03*
G04 #@! TD*
D18*
G04 #@! TO.C,Y1*
X95175000Y-62950000D03*
X98025000Y-62950000D03*
X98025000Y-60650000D03*
X95175000Y-60650000D03*
G04 #@! TD*
D10*
G04 #@! TO.C,R13*
X110837500Y-62400000D03*
X112662500Y-62400000D03*
G04 #@! TD*
D19*
G04 #@! TO.C,R3*
X113162500Y-57250000D03*
X111337500Y-57250000D03*
G04 #@! TD*
D20*
G04 #@! TO.C,F1*
X92225000Y-62100000D03*
X90400000Y-62100000D03*
G04 #@! TD*
D21*
G04 #@! TO.C,D1*
X90500000Y-60100000D03*
X90500000Y-58000000D03*
G04 #@! TD*
D22*
G04 #@! TO.C,J4*
X115500000Y-63250000D03*
X117000000Y-63250000D03*
G04 #@! TD*
D23*
G04 #@! TO.C,U3*
X116750000Y-56750000D03*
X117700000Y-56750000D03*
X118650000Y-56750000D03*
X118650000Y-54475000D03*
X117700000Y-54475000D03*
X116750000Y-54475000D03*
G04 #@! TD*
D24*
G04 #@! TO.C,C1*
X93400000Y-55562500D03*
X93400000Y-58437500D03*
G04 #@! TD*
D25*
G04 #@! TO.C,C8*
X120250000Y-54637500D03*
X120250000Y-56362500D03*
G04 #@! TD*
D26*
G04 #@! TO.C,J6*
X134900000Y-61560000D03*
D27*
X134900000Y-57750000D03*
G04 #@! TD*
D10*
G04 #@! TO.C,R12*
X110587500Y-54250000D03*
X112412500Y-54250000D03*
G04 #@! TD*
D28*
G04 #@! TO.C,C3*
X110037500Y-59300000D03*
X111762500Y-59300000D03*
G04 #@! TD*
D14*
G04 #@! TO.C,J2*
X98540000Y-54500000D03*
D15*
X98540000Y-55770000D03*
X97270000Y-54500000D03*
X97270000Y-55770000D03*
X96000000Y-54500000D03*
X96000000Y-55770000D03*
G04 #@! TD*
D28*
G04 #@! TO.C,C9*
X110037500Y-60800000D03*
X111762500Y-60800000D03*
G04 #@! TD*
D29*
G04 #@! TO.C,U1*
X100750000Y-61000000D03*
X102020000Y-61000000D03*
X103290000Y-61000000D03*
X104560000Y-61000000D03*
X105830000Y-61000000D03*
X107100000Y-61000000D03*
X108370000Y-61000000D03*
X108370000Y-56050000D03*
X107100000Y-56050000D03*
X105830000Y-56050000D03*
X104560000Y-56050000D03*
X103290000Y-56050000D03*
X102020000Y-56050000D03*
X100750000Y-56050000D03*
G04 #@! TD*
D22*
G04 #@! TO.C,J3*
X123500000Y-54250000D03*
X122000000Y-54250000D03*
G04 #@! TD*
M02*
