M48
; DRILL file {KiCad (6.0.0)} date Wed Jan 12 21:26:18 2022
; FORMAT={-:-/ absolute / inch / decimal}
; #@! TF.CreationDate,2022-01-12T21:26:18+03:00
; #@! TF.GenerationSoftware,Kicad,Pcbnew,(6.0.0)
; #@! TF.FileFunction,Plated,1,4,PTH
FMAT,2
INCH
; #@! TA.AperFunction,Plated,PTH,ViaDrill
T1C0.0157
; #@! TA.AperFunction,Plated,PTH,ComponentDrill
T2C0.0256
; #@! TA.AperFunction,Plated,PTH,ComponentDrill
T3C0.0394
; #@! TA.AperFunction,Plated,PTH,ComponentDrill
T4C0.0433
; #@! TA.AperFunction,Plated,PTH,ComponentDrill
T5C0.0984
%
G90
G05
T1
X3.6516Y-2.5098
X3.6772Y-2.4134
X3.6811Y-2.3701
X3.8819Y-2.2894
X3.9272Y-2.2539
X3.9272Y-2.372
X3.9297Y-2.2146
X3.9469Y-2.4705
X3.9965Y-2.283
X4.0157Y-2.1457
X4.0453Y-2.2835
X4.0669Y-2.4961
X4.1142Y-2.1457
X4.1142Y-2.3425
X4.1634Y-2.1457
X4.2126Y-2.1457
X4.2756Y-2.2874
X4.282Y-2.1157
X4.311Y-2.4409
X4.3406Y-2.2539
X4.4449Y-2.3346
X4.4685Y-2.1358
X4.4685Y-2.1949
X4.4724Y-2.5
X4.5039Y-2.2913
X4.5433Y-2.2913
X4.6358Y-2.2835
X4.6752Y-2.2835
X4.6949Y-2.1063
X4.7165Y-2.4528
X4.7795Y-2.3701
X4.8228Y-2.3228
X4.8268Y-2.3701
X5.1654Y-2.4606
X5.1693Y-2.2677
X5.1693Y-2.315
X5.1693Y-2.4134
X5.1732Y-2.3701
T2
X3.7795Y-2.1457
X3.7795Y-2.1957
X3.8295Y-2.1457
X3.8295Y-2.1957
X3.8795Y-2.1457
X3.8795Y-2.1957
X4.9375Y-2.1313
X4.9875Y-2.1313
X5.0375Y-2.1313
T3
X4.5472Y-2.4902
X4.6063Y-2.4902
X4.8031Y-2.1358
X4.8622Y-2.1358
T4
X5.311Y-2.2736
X5.311Y-2.4236
T5
X3.4173Y-2.2126
X3.4173Y-2.4376
X5.5512Y-2.2146
X5.5512Y-2.4396
T0
M30
