G04 #@! TF.GenerationSoftware,KiCad,Pcbnew,(6.0.0)*
G04 #@! TF.CreationDate,2022-01-12T16:05:06+03:00*
G04 #@! TF.ProjectId,svet,73766574-2e6b-4696-9361-645f70636258,rev?*
G04 #@! TF.SameCoordinates,Original*
G04 #@! TF.FileFunction,Copper,L3,Inr*
G04 #@! TF.FilePolarity,Positive*
%FSLAX46Y46*%
G04 Gerber Fmt 4.6, Leading zero omitted, Abs format (unit mm)*
G04 Created by KiCad (PCBNEW (6.0.0)) date 2022-01-12 16:05:06*
%MOMM*%
%LPD*%
G01*
G04 APERTURE LIST*
G04 Aperture macros list*
%AMRoundRect*
0 Rectangle with rounded corners*
0 $1 Rounding radius*
0 $2 $3 $4 $5 $6 $7 $8 $9 X,Y pos of 4 corners*
0 Add a 4 corners polygon primitive as box body*
4,1,4,$2,$3,$4,$5,$6,$7,$8,$9,$2,$3,0*
0 Add four circle primitives for the rounded corners*
1,1,$1+$1,$2,$3*
1,1,$1+$1,$4,$5*
1,1,$1+$1,$6,$7*
1,1,$1+$1,$8,$9*
0 Add four rect primitives between the rounded corners*
20,1,$1+$1,$2,$3,$4,$5,0*
20,1,$1+$1,$4,$5,$6,$7,0*
20,1,$1+$1,$6,$7,$8,$9,0*
20,1,$1+$1,$8,$9,$2,$3,0*%
G04 Aperture macros list end*
G04 #@! TA.AperFunction,ComponentPad*
%ADD10R,1.500000X1.500000*%
G04 #@! TD*
G04 #@! TA.AperFunction,ComponentPad*
%ADD11RoundRect,0.250002X1.699998X-1.699998X1.699998X1.699998X-1.699998X1.699998X-1.699998X-1.699998X0*%
G04 #@! TD*
G04 #@! TA.AperFunction,ComponentPad*
%ADD12C,3.900000*%
G04 #@! TD*
G04 #@! TA.AperFunction,ComponentPad*
%ADD13R,1.000000X1.000000*%
G04 #@! TD*
G04 #@! TA.AperFunction,ComponentPad*
%ADD14O,1.000000X1.000000*%
G04 #@! TD*
G04 #@! TA.AperFunction,ComponentPad*
%ADD15RoundRect,0.250001X0.799999X-0.799999X0.799999X0.799999X-0.799999X0.799999X-0.799999X-0.799999X0*%
G04 #@! TD*
G04 #@! TA.AperFunction,ComponentPad*
%ADD16C,2.100000*%
G04 #@! TD*
G04 #@! TA.AperFunction,ViaPad*
%ADD17C,0.800000*%
G04 #@! TD*
G04 #@! TA.AperFunction,Conductor*
%ADD18C,0.250000*%
G04 #@! TD*
G04 APERTURE END LIST*
D10*
G04 #@! TO.N,/SENS-2*
G04 #@! TO.C,J4*
X113700000Y-54199200D03*
X115200000Y-54199200D03*
G04 #@! TD*
G04 #@! TO.N,/SENS-1*
G04 #@! TO.C,J3*
X109500000Y-63900000D03*
X111000000Y-63900000D03*
G04 #@! TD*
D11*
G04 #@! TO.N,/5V-OUT*
G04 #@! TO.C,J1*
X131100000Y-61915000D03*
D12*
G04 #@! TO.N,/0V-OUT*
X131100000Y-56200000D03*
G04 #@! TD*
D13*
G04 #@! TO.N,/SDA*
G04 #@! TO.C,J5*
X120770000Y-64100000D03*
D14*
G04 #@! TO.N,/SCL*
X119500000Y-64100000D03*
G04 #@! TO.N,0*
X118230000Y-64100000D03*
G04 #@! TD*
D11*
G04 #@! TO.N,/5V-IN*
G04 #@! TO.C,J7*
X86800000Y-61915000D03*
D12*
G04 #@! TO.N,0*
X86800000Y-56200000D03*
G04 #@! TD*
D15*
G04 #@! TO.N,/DIN*
G04 #@! TO.C,J6*
X125000000Y-61510000D03*
D16*
X125000000Y-57700000D03*
G04 #@! TD*
D13*
G04 #@! TO.N,/MISO*
G04 #@! TO.C,J2*
X104160000Y-55600000D03*
D14*
G04 #@! TO.N,+5V*
X104160000Y-54330000D03*
G04 #@! TO.N,/SCK*
X105430000Y-55600000D03*
G04 #@! TO.N,/MOSI*
X105430000Y-54330000D03*
G04 #@! TO.N,/RESET*
X106700000Y-55600000D03*
G04 #@! TO.N,0*
X106700000Y-54330000D03*
G04 #@! TD*
D17*
G04 #@! TO.N,+5V*
X102400000Y-63800000D03*
X113750000Y-55750000D03*
X113012299Y-58112299D03*
G04 #@! TO.N,0*
X124600000Y-55000000D03*
X93500000Y-60200000D03*
X114750000Y-61500000D03*
X93250000Y-64250000D03*
G04 #@! TO.N,Net-(D2-Pad1)*
X108000000Y-60000000D03*
G04 #@! TO.N,Net-(C4-Pad1)*
X107900000Y-62200000D03*
G04 #@! TO.N,/RESET*
X102741907Y-58635072D03*
G04 #@! TO.N,/DIN*
X106300000Y-57100000D03*
G04 #@! TO.N,/MOSI*
X102900000Y-54875500D03*
X112800000Y-61400000D03*
G04 #@! TO.N,/MISO*
X94800000Y-55300000D03*
G04 #@! TO.N,Net-(U1-Pad13)*
X93500000Y-63000000D03*
G04 #@! TO.N,/\u0418\u0417\u041C*
X123250000Y-63750000D03*
X94750000Y-57750000D03*
X124467902Y-54009265D03*
G04 #@! TO.N,Net-(C7-Pad1)*
X107700000Y-56300000D03*
X117000000Y-63750000D03*
G04 #@! TO.N,Net-(C7-Pad2)*
X112887701Y-56375500D03*
G04 #@! TO.N,Net-(R1-Pad2)*
X115800000Y-57400000D03*
G04 #@! TO.N,/SCL*
X98200000Y-58500000D03*
G04 #@! TO.N,/SCK*
X94800000Y-56608712D03*
G04 #@! TO.N,Net-(R10-Pad2)*
X113700000Y-59024500D03*
X119000000Y-53619886D03*
G04 #@! TO.N,Net-(C5-Pad1)*
X102962299Y-60737701D03*
G04 #@! TO.N,Net-(D3-Pad1)*
X93500000Y-61750000D03*
G04 #@! TO.N,/\u0418\u041C\u041F*
X116000000Y-59000000D03*
X107800000Y-57400000D03*
G04 #@! TO.N,Net-(R3-Pad1)*
X94500000Y-60250000D03*
X108000000Y-54400000D03*
G04 #@! TO.N,Net-(R3-Pad2)*
X94500000Y-61250000D03*
G04 #@! TO.N,/SENS-2*
X122500000Y-58750000D03*
X123300000Y-54200000D03*
G04 #@! TD*
D18*
G04 #@! TO.N,0*
X108450000Y-55200000D02*
X113400480Y-60150480D01*
X106700000Y-54330000D02*
X107570000Y-55200000D01*
X107570000Y-55200000D02*
X108450000Y-55200000D01*
X118230000Y-61230000D02*
X118230000Y-64100000D01*
X117150480Y-60150480D02*
X118230000Y-61230000D01*
X113400480Y-60150480D02*
X117150480Y-60150480D01*
G04 #@! TO.N,/MOSI*
X112800000Y-61400000D02*
X108000000Y-61400000D01*
X102900000Y-56300000D02*
X102900000Y-54875500D01*
X108000000Y-61400000D02*
X102900000Y-56300000D01*
G04 #@! TO.N,/\u0418\u0417\u041C*
X123424511Y-63575489D02*
X123424511Y-55150875D01*
X123424511Y-55150875D02*
X124467902Y-54107484D01*
X123250000Y-63750000D02*
X123424511Y-63575489D01*
X124467902Y-54107484D02*
X124467902Y-54009265D01*
G04 #@! TO.N,Net-(C7-Pad1)*
X115850000Y-60600000D02*
X117000000Y-61750000D01*
X117000000Y-61750000D02*
X117000000Y-63750000D01*
X113100000Y-60600000D02*
X115850000Y-60600000D01*
X107700000Y-56300000D02*
X108800000Y-56300000D01*
X108800000Y-56300000D02*
X113100000Y-60600000D01*
G04 #@! TO.N,Net-(R10-Pad2)*
X113700000Y-58475386D02*
X113700000Y-59024500D01*
X113700000Y-58475386D02*
X118555500Y-53619886D01*
X118555500Y-53619886D02*
X119000000Y-53619886D01*
G04 #@! TD*
G04 #@! TA.AperFunction,Conductor*
G04 #@! TO.N,0*
G36*
X86563068Y-53528002D02*
G01*
X86609561Y-53581658D01*
X86619665Y-53651932D01*
X86590171Y-53716512D01*
X86530445Y-53754896D01*
X86510739Y-53759006D01*
X86342438Y-53780267D01*
X86334667Y-53781750D01*
X86042776Y-53856694D01*
X86035251Y-53859139D01*
X85755038Y-53970084D01*
X85747903Y-53973441D01*
X85483807Y-54118630D01*
X85477125Y-54122870D01*
X85262973Y-54278460D01*
X85254550Y-54289383D01*
X85261454Y-54302244D01*
X86787188Y-55827978D01*
X86801132Y-55835592D01*
X86802965Y-55835461D01*
X86809580Y-55831210D01*
X88338870Y-54301920D01*
X88345483Y-54289809D01*
X88336656Y-54278191D01*
X88122875Y-54122870D01*
X88116193Y-54118630D01*
X87852097Y-53973441D01*
X87844962Y-53970084D01*
X87564749Y-53859139D01*
X87557224Y-53856694D01*
X87265333Y-53781750D01*
X87257562Y-53780267D01*
X87089261Y-53759006D01*
X87024184Y-53730624D01*
X86984783Y-53671565D01*
X86983566Y-53600579D01*
X87020921Y-53540203D01*
X87084987Y-53509608D01*
X87105053Y-53508000D01*
X103262973Y-53508000D01*
X103331094Y-53528002D01*
X103377587Y-53581658D01*
X103387691Y-53651932D01*
X103359495Y-53714989D01*
X103323846Y-53757474D01*
X103320876Y-53762877D01*
X103320873Y-53762881D01*
X103231436Y-53925568D01*
X103181091Y-53975627D01*
X103111674Y-53990521D01*
X103094826Y-53988115D01*
X103072794Y-53983432D01*
X103001944Y-53968372D01*
X103001939Y-53968372D01*
X102995487Y-53967000D01*
X102804513Y-53967000D01*
X102798061Y-53968372D01*
X102798056Y-53968372D01*
X102711113Y-53986853D01*
X102617712Y-54006706D01*
X102611682Y-54009391D01*
X102611681Y-54009391D01*
X102449278Y-54081697D01*
X102449276Y-54081698D01*
X102443248Y-54084382D01*
X102288747Y-54196634D01*
X102284326Y-54201544D01*
X102284325Y-54201545D01*
X102196800Y-54298752D01*
X102160960Y-54338556D01*
X102133254Y-54386544D01*
X102073494Y-54490052D01*
X102065473Y-54503944D01*
X102006458Y-54685572D01*
X102005768Y-54692133D01*
X102005768Y-54692135D01*
X101999117Y-54755417D01*
X101986496Y-54875500D01*
X101987186Y-54882065D01*
X102001353Y-55016853D01*
X102006458Y-55065428D01*
X102065473Y-55247056D01*
X102068776Y-55252778D01*
X102068777Y-55252779D01*
X102092100Y-55293176D01*
X102160960Y-55412444D01*
X102234137Y-55493715D01*
X102264853Y-55557721D01*
X102266500Y-55578024D01*
X102266500Y-56221233D01*
X102265973Y-56232416D01*
X102264298Y-56239909D01*
X102264547Y-56247835D01*
X102264547Y-56247836D01*
X102266438Y-56307986D01*
X102266500Y-56311945D01*
X102266500Y-56339856D01*
X102266997Y-56343790D01*
X102266997Y-56343791D01*
X102267005Y-56343856D01*
X102267938Y-56355693D01*
X102269327Y-56399889D01*
X102274978Y-56419339D01*
X102278987Y-56438700D01*
X102281526Y-56458797D01*
X102284445Y-56466168D01*
X102284445Y-56466170D01*
X102297804Y-56499912D01*
X102301649Y-56511142D01*
X102310358Y-56541118D01*
X102313982Y-56553593D01*
X102318015Y-56560412D01*
X102318017Y-56560417D01*
X102324293Y-56571028D01*
X102332988Y-56588776D01*
X102340448Y-56607617D01*
X102345110Y-56614033D01*
X102345110Y-56614034D01*
X102366436Y-56643387D01*
X102372952Y-56653307D01*
X102395458Y-56691362D01*
X102409779Y-56705683D01*
X102422619Y-56720716D01*
X102434528Y-56737107D01*
X102453470Y-56752777D01*
X102468605Y-56765298D01*
X102477384Y-56773288D01*
X103350467Y-57646371D01*
X103384493Y-57708683D01*
X103379428Y-57779498D01*
X103336881Y-57836334D01*
X103270361Y-57861145D01*
X103200062Y-57844973D01*
X103198659Y-57843954D01*
X103192631Y-57841270D01*
X103192629Y-57841269D01*
X103030226Y-57768963D01*
X103030225Y-57768963D01*
X103024195Y-57766278D01*
X102916728Y-57743435D01*
X102843851Y-57727944D01*
X102843846Y-57727944D01*
X102837394Y-57726572D01*
X102646420Y-57726572D01*
X102639968Y-57727944D01*
X102639963Y-57727944D01*
X102567086Y-57743435D01*
X102459619Y-57766278D01*
X102453589Y-57768963D01*
X102453588Y-57768963D01*
X102291185Y-57841269D01*
X102291183Y-57841270D01*
X102285155Y-57843954D01*
X102279814Y-57847834D01*
X102279813Y-57847835D01*
X102273833Y-57852180D01*
X102130654Y-57956206D01*
X102126233Y-57961116D01*
X102126232Y-57961117D01*
X102020211Y-58078866D01*
X102002867Y-58098128D01*
X101907380Y-58263516D01*
X101848365Y-58445144D01*
X101847675Y-58451705D01*
X101847675Y-58451707D01*
X101836904Y-58554193D01*
X101828403Y-58635072D01*
X101829093Y-58641637D01*
X101846646Y-58808641D01*
X101848365Y-58825000D01*
X101907380Y-59006628D01*
X102002867Y-59172016D01*
X102007285Y-59176923D01*
X102007286Y-59176924D01*
X102106612Y-59287237D01*
X102130654Y-59313938D01*
X102147318Y-59326045D01*
X102258919Y-59407128D01*
X102285155Y-59426190D01*
X102291183Y-59428874D01*
X102291185Y-59428875D01*
X102382777Y-59469654D01*
X102459619Y-59503866D01*
X102540849Y-59521132D01*
X102639963Y-59542200D01*
X102639968Y-59542200D01*
X102646420Y-59543572D01*
X102837394Y-59543572D01*
X102843846Y-59542200D01*
X102843851Y-59542200D01*
X102942965Y-59521132D01*
X103024195Y-59503866D01*
X103101037Y-59469654D01*
X103192629Y-59428875D01*
X103192631Y-59428874D01*
X103198659Y-59426190D01*
X103224896Y-59407128D01*
X103336496Y-59326045D01*
X103353160Y-59313938D01*
X103377202Y-59287237D01*
X103476528Y-59176924D01*
X103476529Y-59176923D01*
X103480947Y-59172016D01*
X103576434Y-59006628D01*
X103635449Y-58825000D01*
X103637169Y-58808641D01*
X103654721Y-58641637D01*
X103655411Y-58635072D01*
X103646910Y-58554193D01*
X103636139Y-58451707D01*
X103636139Y-58451705D01*
X103635449Y-58445144D01*
X103576434Y-58263516D01*
X103520606Y-58166819D01*
X103503868Y-58097824D01*
X103527088Y-58030732D01*
X103582896Y-57986845D01*
X103653571Y-57980096D01*
X103718820Y-58014724D01*
X107174105Y-61470009D01*
X107208131Y-61532321D01*
X107203066Y-61603136D01*
X107178648Y-61643411D01*
X107160960Y-61663056D01*
X107133774Y-61710144D01*
X107076069Y-61810092D01*
X107065473Y-61828444D01*
X107006458Y-62010072D01*
X107005768Y-62016633D01*
X107005768Y-62016635D01*
X106998820Y-62082745D01*
X106986496Y-62200000D01*
X106987186Y-62206565D01*
X107003691Y-62363598D01*
X107006458Y-62389928D01*
X107065473Y-62571556D01*
X107160960Y-62736944D01*
X107165378Y-62741851D01*
X107165379Y-62741852D01*
X107207366Y-62788483D01*
X107288747Y-62878866D01*
X107333943Y-62911703D01*
X107406513Y-62964428D01*
X107443248Y-62991118D01*
X107449276Y-62993802D01*
X107449278Y-62993803D01*
X107611681Y-63066109D01*
X107617712Y-63068794D01*
X107711112Y-63088647D01*
X107798056Y-63107128D01*
X107798061Y-63107128D01*
X107804513Y-63108500D01*
X107995487Y-63108500D01*
X108001939Y-63107128D01*
X108001944Y-63107128D01*
X108089303Y-63088559D01*
X108160094Y-63093961D01*
X108216727Y-63136778D01*
X108241220Y-63203416D01*
X108241500Y-63211806D01*
X108241500Y-64366000D01*
X108221498Y-64434121D01*
X108167842Y-64480614D01*
X108115500Y-64492000D01*
X103267757Y-64492000D01*
X103199636Y-64471998D01*
X103153143Y-64418342D01*
X103143039Y-64348068D01*
X103158638Y-64303000D01*
X103231223Y-64177279D01*
X103231224Y-64177278D01*
X103234527Y-64171556D01*
X103293542Y-63989928D01*
X103298373Y-63943969D01*
X103312814Y-63806565D01*
X103313504Y-63800000D01*
X103307559Y-63743435D01*
X103294232Y-63616635D01*
X103294232Y-63616633D01*
X103293542Y-63610072D01*
X103234527Y-63428444D01*
X103139040Y-63263056D01*
X103099169Y-63218774D01*
X103015675Y-63126045D01*
X103015674Y-63126044D01*
X103011253Y-63121134D01*
X102856752Y-63008882D01*
X102850724Y-63006198D01*
X102850722Y-63006197D01*
X102688319Y-62933891D01*
X102688318Y-62933891D01*
X102682288Y-62931206D01*
X102575362Y-62908478D01*
X102501944Y-62892872D01*
X102501939Y-62892872D01*
X102495487Y-62891500D01*
X102304513Y-62891500D01*
X102298061Y-62892872D01*
X102298056Y-62892872D01*
X102224638Y-62908478D01*
X102117712Y-62931206D01*
X102111682Y-62933891D01*
X102111681Y-62933891D01*
X101949278Y-63006197D01*
X101949276Y-63006198D01*
X101943248Y-63008882D01*
X101788747Y-63121134D01*
X101784326Y-63126044D01*
X101784325Y-63126045D01*
X101700832Y-63218774D01*
X101660960Y-63263056D01*
X101565473Y-63428444D01*
X101506458Y-63610072D01*
X101505768Y-63616633D01*
X101505768Y-63616635D01*
X101492441Y-63743435D01*
X101486496Y-63800000D01*
X101487186Y-63806565D01*
X101501628Y-63943969D01*
X101506458Y-63989928D01*
X101565473Y-64171556D01*
X101568776Y-64177278D01*
X101568777Y-64177279D01*
X101641362Y-64303000D01*
X101658100Y-64371995D01*
X101634879Y-64439087D01*
X101579072Y-64482974D01*
X101532243Y-64492000D01*
X88967320Y-64492000D01*
X88899199Y-64471998D01*
X88852706Y-64418342D01*
X88842602Y-64348068D01*
X88872096Y-64283488D01*
X88901017Y-64258856D01*
X88901205Y-64258740D01*
X88974347Y-64213478D01*
X89099305Y-64088302D01*
X89192114Y-63937737D01*
X89247797Y-63769860D01*
X89249160Y-63756565D01*
X89257623Y-63673955D01*
X89258500Y-63665399D01*
X89258500Y-63000000D01*
X92586496Y-63000000D01*
X92587186Y-63006565D01*
X92604568Y-63171942D01*
X92606458Y-63189928D01*
X92665473Y-63371556D01*
X92760960Y-63536944D01*
X92765378Y-63541851D01*
X92765379Y-63541852D01*
X92787694Y-63566635D01*
X92888747Y-63678866D01*
X93043248Y-63791118D01*
X93049276Y-63793802D01*
X93049278Y-63793803D01*
X93211681Y-63866109D01*
X93217712Y-63868794D01*
X93311112Y-63888647D01*
X93398056Y-63907128D01*
X93398061Y-63907128D01*
X93404513Y-63908500D01*
X93595487Y-63908500D01*
X93601939Y-63907128D01*
X93601944Y-63907128D01*
X93688888Y-63888647D01*
X93782288Y-63868794D01*
X93788319Y-63866109D01*
X93950722Y-63793803D01*
X93950724Y-63793802D01*
X93956752Y-63791118D01*
X94111253Y-63678866D01*
X94212306Y-63566635D01*
X94234621Y-63541852D01*
X94234622Y-63541851D01*
X94239040Y-63536944D01*
X94334527Y-63371556D01*
X94393542Y-63189928D01*
X94395433Y-63171942D01*
X94412814Y-63006565D01*
X94413504Y-63000000D01*
X94401181Y-62882749D01*
X94394232Y-62816635D01*
X94394232Y-62816633D01*
X94393542Y-62810072D01*
X94334527Y-62628444D01*
X94239040Y-62463056D01*
X94234620Y-62458148D01*
X94230741Y-62452808D01*
X94232080Y-62451835D01*
X94204950Y-62395304D01*
X94213713Y-62324851D01*
X94231250Y-62297562D01*
X94230741Y-62297192D01*
X94234621Y-62291852D01*
X94239040Y-62286944D01*
X94277888Y-62219658D01*
X94329270Y-62170666D01*
X94399606Y-62157457D01*
X94404513Y-62158500D01*
X94595487Y-62158500D01*
X94601939Y-62157128D01*
X94601944Y-62157128D01*
X94688888Y-62138647D01*
X94782288Y-62118794D01*
X94863256Y-62082745D01*
X94950722Y-62043803D01*
X94950724Y-62043802D01*
X94956752Y-62041118D01*
X95111253Y-61928866D01*
X95212060Y-61816908D01*
X95234621Y-61791852D01*
X95234622Y-61791851D01*
X95239040Y-61786944D01*
X95322439Y-61642493D01*
X95331223Y-61627279D01*
X95331224Y-61627278D01*
X95334527Y-61621556D01*
X95393542Y-61439928D01*
X95395998Y-61416567D01*
X95412814Y-61256565D01*
X95413504Y-61250000D01*
X95399313Y-61114980D01*
X95394232Y-61066635D01*
X95394232Y-61066633D01*
X95393542Y-61060072D01*
X95334527Y-60878444D01*
X95313198Y-60841500D01*
X95296743Y-60813000D01*
X95280005Y-60744005D01*
X95281856Y-60737701D01*
X102048795Y-60737701D01*
X102049485Y-60744266D01*
X102063734Y-60879834D01*
X102068757Y-60927629D01*
X102127772Y-61109257D01*
X102223259Y-61274645D01*
X102227677Y-61279552D01*
X102227678Y-61279553D01*
X102305032Y-61365463D01*
X102351046Y-61416567D01*
X102505547Y-61528819D01*
X102511575Y-61531503D01*
X102511577Y-61531504D01*
X102673980Y-61603810D01*
X102680011Y-61606495D01*
X102773411Y-61626348D01*
X102860355Y-61644829D01*
X102860360Y-61644829D01*
X102866812Y-61646201D01*
X103057786Y-61646201D01*
X103064238Y-61644829D01*
X103064243Y-61644829D01*
X103151187Y-61626348D01*
X103244587Y-61606495D01*
X103250618Y-61603810D01*
X103413021Y-61531504D01*
X103413023Y-61531503D01*
X103419051Y-61528819D01*
X103573552Y-61416567D01*
X103619566Y-61365463D01*
X103696920Y-61279553D01*
X103696921Y-61279552D01*
X103701339Y-61274645D01*
X103796826Y-61109257D01*
X103855841Y-60927629D01*
X103860865Y-60879834D01*
X103875113Y-60744266D01*
X103875803Y-60737701D01*
X103855841Y-60547773D01*
X103796826Y-60366145D01*
X103701339Y-60200757D01*
X103694339Y-60192982D01*
X103577974Y-60063746D01*
X103577973Y-60063745D01*
X103573552Y-60058835D01*
X103439585Y-59961502D01*
X103424393Y-59950464D01*
X103424392Y-59950463D01*
X103419051Y-59946583D01*
X103413023Y-59943899D01*
X103413021Y-59943898D01*
X103250618Y-59871592D01*
X103250617Y-59871592D01*
X103244587Y-59868907D01*
X103151186Y-59849054D01*
X103064243Y-59830573D01*
X103064238Y-59830573D01*
X103057786Y-59829201D01*
X102866812Y-59829201D01*
X102860360Y-59830573D01*
X102860355Y-59830573D01*
X102773412Y-59849054D01*
X102680011Y-59868907D01*
X102673981Y-59871592D01*
X102673980Y-59871592D01*
X102511577Y-59943898D01*
X102511575Y-59943899D01*
X102505547Y-59946583D01*
X102500206Y-59950463D01*
X102500205Y-59950464D01*
X102485013Y-59961502D01*
X102351046Y-60058835D01*
X102346625Y-60063745D01*
X102346624Y-60063746D01*
X102230260Y-60192982D01*
X102223259Y-60200757D01*
X102127772Y-60366145D01*
X102068757Y-60547773D01*
X102048795Y-60737701D01*
X95281856Y-60737701D01*
X95296743Y-60687000D01*
X95331223Y-60627279D01*
X95331224Y-60627278D01*
X95334527Y-60621556D01*
X95393542Y-60439928D01*
X95413504Y-60250000D01*
X95406941Y-60187557D01*
X95394232Y-60066635D01*
X95394232Y-60066633D01*
X95393542Y-60060072D01*
X95334527Y-59878444D01*
X95319819Y-59852968D01*
X95284109Y-59791118D01*
X95239040Y-59713056D01*
X95233812Y-59707249D01*
X95115675Y-59576045D01*
X95115674Y-59576044D01*
X95111253Y-59571134D01*
X95012157Y-59499136D01*
X94962094Y-59462763D01*
X94962093Y-59462762D01*
X94956752Y-59458882D01*
X94950724Y-59456198D01*
X94950722Y-59456197D01*
X94788319Y-59383891D01*
X94788318Y-59383891D01*
X94782288Y-59381206D01*
X94688888Y-59361353D01*
X94601944Y-59342872D01*
X94601939Y-59342872D01*
X94595487Y-59341500D01*
X94404513Y-59341500D01*
X94398061Y-59342872D01*
X94398056Y-59342872D01*
X94311112Y-59361353D01*
X94217712Y-59381206D01*
X94211682Y-59383891D01*
X94211681Y-59383891D01*
X94049278Y-59456197D01*
X94049276Y-59456198D01*
X94043248Y-59458882D01*
X94037907Y-59462762D01*
X94037906Y-59462763D01*
X93987843Y-59499136D01*
X93888747Y-59571134D01*
X93884326Y-59576044D01*
X93884325Y-59576045D01*
X93766189Y-59707249D01*
X93760960Y-59713056D01*
X93715891Y-59791118D01*
X93680182Y-59852968D01*
X93665473Y-59878444D01*
X93606458Y-60060072D01*
X93605768Y-60066633D01*
X93605768Y-60066635D01*
X93593059Y-60187557D01*
X93586496Y-60250000D01*
X93606458Y-60439928D01*
X93665473Y-60621556D01*
X93681914Y-60650033D01*
X93683339Y-60652501D01*
X93700076Y-60721497D01*
X93676855Y-60788588D01*
X93621047Y-60832475D01*
X93574219Y-60841500D01*
X93404513Y-60841500D01*
X93398061Y-60842872D01*
X93398056Y-60842872D01*
X93311112Y-60861353D01*
X93217712Y-60881206D01*
X93211682Y-60883891D01*
X93211681Y-60883891D01*
X93049278Y-60956197D01*
X93049276Y-60956198D01*
X93043248Y-60958882D01*
X92888747Y-61071134D01*
X92760960Y-61213056D01*
X92725402Y-61274645D01*
X92672968Y-61365463D01*
X92665473Y-61378444D01*
X92606458Y-61560072D01*
X92605768Y-61566633D01*
X92605768Y-61566635D01*
X92596995Y-61650111D01*
X92586496Y-61750000D01*
X92606458Y-61939928D01*
X92665473Y-62121556D01*
X92668776Y-62127278D01*
X92668777Y-62127279D01*
X92686139Y-62157350D01*
X92760960Y-62286944D01*
X92765380Y-62291852D01*
X92769259Y-62297192D01*
X92767920Y-62298165D01*
X92795050Y-62354696D01*
X92786287Y-62425149D01*
X92768750Y-62452438D01*
X92769259Y-62452808D01*
X92765380Y-62458148D01*
X92760960Y-62463056D01*
X92665473Y-62628444D01*
X92606458Y-62810072D01*
X92605768Y-62816633D01*
X92605768Y-62816635D01*
X92598819Y-62882749D01*
X92586496Y-63000000D01*
X89258500Y-63000000D01*
X89258499Y-60164602D01*
X89247526Y-60058835D01*
X89223500Y-59986819D01*
X89193868Y-59898003D01*
X89191550Y-59891055D01*
X89098478Y-59740653D01*
X88973302Y-59615695D01*
X88822737Y-59522886D01*
X88654860Y-59467203D01*
X88648027Y-59466503D01*
X88648023Y-59466502D01*
X88592147Y-59460778D01*
X88550399Y-59456500D01*
X86813498Y-59456500D01*
X85049602Y-59456501D01*
X84943835Y-59467474D01*
X84937302Y-59469654D01*
X84937300Y-59469654D01*
X84842803Y-59501181D01*
X84776055Y-59523450D01*
X84625653Y-59616522D01*
X84528571Y-59713774D01*
X84515173Y-59727195D01*
X84452891Y-59761274D01*
X84382071Y-59756271D01*
X84325198Y-59713774D01*
X84300329Y-59647275D01*
X84300000Y-59638177D01*
X84300000Y-58110191D01*
X85254517Y-58110191D01*
X85263344Y-58121809D01*
X85477125Y-58277130D01*
X85483807Y-58281370D01*
X85747903Y-58426559D01*
X85755038Y-58429916D01*
X86035251Y-58540861D01*
X86042776Y-58543306D01*
X86334667Y-58618250D01*
X86342438Y-58619733D01*
X86641425Y-58657503D01*
X86649315Y-58658000D01*
X86950685Y-58658000D01*
X86958575Y-58657503D01*
X87257562Y-58619733D01*
X87265333Y-58618250D01*
X87557224Y-58543306D01*
X87564749Y-58540861D01*
X87844962Y-58429916D01*
X87852097Y-58426559D01*
X88116193Y-58281370D01*
X88122875Y-58277130D01*
X88337027Y-58121540D01*
X88345450Y-58110617D01*
X88338546Y-58097756D01*
X87990790Y-57750000D01*
X93836496Y-57750000D01*
X93837186Y-57756565D01*
X93850500Y-57883236D01*
X93856458Y-57939928D01*
X93915473Y-58121556D01*
X93918776Y-58127278D01*
X93918777Y-58127279D01*
X93939696Y-58163511D01*
X94010960Y-58286944D01*
X94015378Y-58291851D01*
X94015379Y-58291852D01*
X94082605Y-58366514D01*
X94138747Y-58428866D01*
X94214433Y-58483855D01*
X94260777Y-58517526D01*
X94293248Y-58541118D01*
X94299276Y-58543802D01*
X94299278Y-58543803D01*
X94458449Y-58614670D01*
X94467712Y-58618794D01*
X94542680Y-58634729D01*
X94648056Y-58657128D01*
X94648061Y-58657128D01*
X94654513Y-58658500D01*
X94845487Y-58658500D01*
X94851939Y-58657128D01*
X94851944Y-58657128D01*
X94957320Y-58634729D01*
X95032288Y-58618794D01*
X95041551Y-58614670D01*
X95200722Y-58543803D01*
X95200724Y-58543802D01*
X95206752Y-58541118D01*
X95239224Y-58517526D01*
X95263346Y-58500000D01*
X97286496Y-58500000D01*
X97287186Y-58506565D01*
X97303103Y-58658003D01*
X97306458Y-58689928D01*
X97365473Y-58871556D01*
X97460960Y-59036944D01*
X97465378Y-59041851D01*
X97465379Y-59041852D01*
X97537145Y-59121556D01*
X97588747Y-59178866D01*
X97743248Y-59291118D01*
X97749276Y-59293802D01*
X97749278Y-59293803D01*
X97856408Y-59341500D01*
X97917712Y-59368794D01*
X98011112Y-59388647D01*
X98098056Y-59407128D01*
X98098061Y-59407128D01*
X98104513Y-59408500D01*
X98295487Y-59408500D01*
X98301939Y-59407128D01*
X98301944Y-59407128D01*
X98388888Y-59388647D01*
X98482288Y-59368794D01*
X98543592Y-59341500D01*
X98650722Y-59293803D01*
X98650724Y-59293802D01*
X98656752Y-59291118D01*
X98811253Y-59178866D01*
X98862855Y-59121556D01*
X98934621Y-59041852D01*
X98934622Y-59041851D01*
X98939040Y-59036944D01*
X99034527Y-58871556D01*
X99093542Y-58689928D01*
X99096898Y-58658003D01*
X99112814Y-58506565D01*
X99113504Y-58500000D01*
X99108428Y-58451707D01*
X99094232Y-58316635D01*
X99094232Y-58316633D01*
X99093542Y-58310072D01*
X99034527Y-58128444D01*
X99016849Y-58097824D01*
X98978113Y-58030732D01*
X98939040Y-57963056D01*
X98922384Y-57944557D01*
X98815675Y-57826045D01*
X98815674Y-57826044D01*
X98811253Y-57821134D01*
X98696176Y-57737525D01*
X98662094Y-57712763D01*
X98662093Y-57712762D01*
X98656752Y-57708882D01*
X98650724Y-57706198D01*
X98650722Y-57706197D01*
X98488319Y-57633891D01*
X98488318Y-57633891D01*
X98482288Y-57631206D01*
X98388887Y-57611353D01*
X98301944Y-57592872D01*
X98301939Y-57592872D01*
X98295487Y-57591500D01*
X98104513Y-57591500D01*
X98098061Y-57592872D01*
X98098056Y-57592872D01*
X98011113Y-57611353D01*
X97917712Y-57631206D01*
X97911682Y-57633891D01*
X97911681Y-57633891D01*
X97749278Y-57706197D01*
X97749276Y-57706198D01*
X97743248Y-57708882D01*
X97737907Y-57712762D01*
X97737906Y-57712763D01*
X97703824Y-57737525D01*
X97588747Y-57821134D01*
X97584326Y-57826044D01*
X97584325Y-57826045D01*
X97477617Y-57944557D01*
X97460960Y-57963056D01*
X97421887Y-58030732D01*
X97383152Y-58097824D01*
X97365473Y-58128444D01*
X97306458Y-58310072D01*
X97305768Y-58316633D01*
X97305768Y-58316635D01*
X97291572Y-58451707D01*
X97286496Y-58500000D01*
X95263346Y-58500000D01*
X95285567Y-58483855D01*
X95361253Y-58428866D01*
X95417395Y-58366514D01*
X95484621Y-58291852D01*
X95484622Y-58291851D01*
X95489040Y-58286944D01*
X95560304Y-58163511D01*
X95581223Y-58127279D01*
X95581224Y-58127278D01*
X95584527Y-58121556D01*
X95643542Y-57939928D01*
X95649501Y-57883236D01*
X95662814Y-57756565D01*
X95663504Y-57750000D01*
X95659182Y-57708882D01*
X95644232Y-57566635D01*
X95644232Y-57566633D01*
X95643542Y-57560072D01*
X95584527Y-57378444D01*
X95552986Y-57323813D01*
X95530032Y-57284055D01*
X95513294Y-57215059D01*
X95536816Y-57148126D01*
X95539040Y-57145656D01*
X95545421Y-57134605D01*
X95631223Y-56985991D01*
X95631224Y-56985990D01*
X95634527Y-56980268D01*
X95693542Y-56798640D01*
X95696568Y-56769854D01*
X95712814Y-56615277D01*
X95713504Y-56608712D01*
X95704494Y-56522986D01*
X95694232Y-56425347D01*
X95694232Y-56425345D01*
X95693542Y-56418784D01*
X95634527Y-56237156D01*
X95613729Y-56201132D01*
X95567785Y-56121556D01*
X95539040Y-56071768D01*
X95509235Y-56038666D01*
X95478517Y-55974659D01*
X95487282Y-55904205D01*
X95509235Y-55870046D01*
X95534621Y-55841852D01*
X95534622Y-55841851D01*
X95539040Y-55836944D01*
X95602168Y-55727604D01*
X95631223Y-55677279D01*
X95631224Y-55677278D01*
X95634527Y-55671556D01*
X95693542Y-55489928D01*
X95697329Y-55453902D01*
X95712814Y-55306565D01*
X95713504Y-55300000D01*
X95701595Y-55186694D01*
X95694232Y-55116635D01*
X95694232Y-55116633D01*
X95693542Y-55110072D01*
X95634527Y-54928444D01*
X95628362Y-54917765D01*
X95558350Y-54796502D01*
X95539040Y-54763056D01*
X95467156Y-54683220D01*
X95415675Y-54626045D01*
X95415674Y-54626044D01*
X95411253Y-54621134D01*
X95283597Y-54528386D01*
X95262094Y-54512763D01*
X95262093Y-54512762D01*
X95256752Y-54508882D01*
X95250724Y-54506198D01*
X95250722Y-54506197D01*
X95088319Y-54433891D01*
X95088318Y-54433891D01*
X95082288Y-54431206D01*
X94987246Y-54411004D01*
X94901944Y-54392872D01*
X94901939Y-54392872D01*
X94895487Y-54391500D01*
X94704513Y-54391500D01*
X94698061Y-54392872D01*
X94698056Y-54392872D01*
X94612754Y-54411004D01*
X94517712Y-54431206D01*
X94511682Y-54433891D01*
X94511681Y-54433891D01*
X94349278Y-54506197D01*
X94349276Y-54506198D01*
X94343248Y-54508882D01*
X94337907Y-54512762D01*
X94337906Y-54512763D01*
X94316403Y-54528386D01*
X94188747Y-54621134D01*
X94184326Y-54626044D01*
X94184325Y-54626045D01*
X94132845Y-54683220D01*
X94060960Y-54763056D01*
X94041650Y-54796502D01*
X93971639Y-54917765D01*
X93965473Y-54928444D01*
X93906458Y-55110072D01*
X93905768Y-55116633D01*
X93905768Y-55116635D01*
X93898405Y-55186694D01*
X93886496Y-55300000D01*
X93887186Y-55306565D01*
X93902672Y-55453902D01*
X93906458Y-55489928D01*
X93965473Y-55671556D01*
X93968776Y-55677278D01*
X93968777Y-55677279D01*
X93997832Y-55727604D01*
X94060960Y-55836944D01*
X94065378Y-55841851D01*
X94065379Y-55841852D01*
X94090765Y-55870046D01*
X94121483Y-55934053D01*
X94112718Y-56004507D01*
X94090765Y-56038666D01*
X94060960Y-56071768D01*
X94032215Y-56121556D01*
X93986272Y-56201132D01*
X93965473Y-56237156D01*
X93906458Y-56418784D01*
X93905768Y-56425345D01*
X93905768Y-56425347D01*
X93895506Y-56522986D01*
X93886496Y-56608712D01*
X93887186Y-56615277D01*
X93903433Y-56769854D01*
X93906458Y-56798640D01*
X93965473Y-56980268D01*
X93968776Y-56985990D01*
X93968777Y-56985991D01*
X94019968Y-57074657D01*
X94036706Y-57143653D01*
X94013184Y-57210586D01*
X94010960Y-57213056D01*
X94007658Y-57218775D01*
X94007656Y-57218778D01*
X93948534Y-57321181D01*
X93915473Y-57378444D01*
X93856458Y-57560072D01*
X93855768Y-57566633D01*
X93855768Y-57566635D01*
X93840818Y-57708882D01*
X93836496Y-57750000D01*
X87990790Y-57750000D01*
X86812812Y-56572022D01*
X86798868Y-56564408D01*
X86797035Y-56564539D01*
X86790420Y-56568790D01*
X85261130Y-58098080D01*
X85254517Y-58110191D01*
X84300000Y-58110191D01*
X84300000Y-57223864D01*
X84320002Y-57155743D01*
X84373658Y-57109250D01*
X84443932Y-57099146D01*
X84508512Y-57128640D01*
X84540008Y-57170216D01*
X84640092Y-57382906D01*
X84643903Y-57389839D01*
X84805378Y-57644282D01*
X84810029Y-57650685D01*
X84880010Y-57735278D01*
X84892527Y-57743732D01*
X84903265Y-57737525D01*
X86427978Y-56212812D01*
X86434356Y-56201132D01*
X87164408Y-56201132D01*
X87164539Y-56202965D01*
X87168790Y-56209580D01*
X88695632Y-57736422D01*
X88708895Y-57743664D01*
X88718997Y-57736478D01*
X88789971Y-57650685D01*
X88794622Y-57644282D01*
X88956097Y-57389839D01*
X88959908Y-57382906D01*
X89088220Y-57110229D01*
X89091135Y-57102866D01*
X89184258Y-56816264D01*
X89186229Y-56808587D01*
X89242696Y-56512576D01*
X89243689Y-56504715D01*
X89262611Y-56203958D01*
X89262611Y-56196042D01*
X89243689Y-55895285D01*
X89242696Y-55887424D01*
X89186229Y-55591413D01*
X89184258Y-55583736D01*
X89091135Y-55297134D01*
X89088220Y-55289771D01*
X88959908Y-55017094D01*
X88956097Y-55010161D01*
X88794622Y-54755718D01*
X88789971Y-54749315D01*
X88719990Y-54664722D01*
X88707473Y-54656268D01*
X88696735Y-54662475D01*
X87172022Y-56187188D01*
X87164408Y-56201132D01*
X86434356Y-56201132D01*
X86435592Y-56198868D01*
X86435461Y-56197035D01*
X86431210Y-56190420D01*
X84904368Y-54663578D01*
X84891105Y-54656336D01*
X84881003Y-54663522D01*
X84810029Y-54749315D01*
X84805378Y-54755718D01*
X84643903Y-55010161D01*
X84640092Y-55017094D01*
X84540008Y-55229784D01*
X84492906Y-55282905D01*
X84424561Y-55302128D01*
X84356673Y-55281349D01*
X84310796Y-55227166D01*
X84300000Y-55176136D01*
X84300000Y-53634000D01*
X84320002Y-53565879D01*
X84373658Y-53519386D01*
X84426000Y-53508000D01*
X86494947Y-53508000D01*
X86563068Y-53528002D01*
G37*
G04 #@! TD.AperFunction*
G04 #@! TA.AperFunction,Conductor*
G36*
X115603527Y-61253502D02*
G01*
X115624501Y-61270405D01*
X116329595Y-61975499D01*
X116363621Y-62037811D01*
X116366500Y-62064594D01*
X116366500Y-63047476D01*
X116346498Y-63115597D01*
X116334142Y-63131779D01*
X116260960Y-63213056D01*
X116165473Y-63378444D01*
X116106458Y-63560072D01*
X116105768Y-63566633D01*
X116105768Y-63566635D01*
X116093972Y-63678866D01*
X116086496Y-63750000D01*
X116087186Y-63756565D01*
X116105563Y-63931409D01*
X116106458Y-63939928D01*
X116165473Y-64121556D01*
X116168776Y-64127278D01*
X116168777Y-64127279D01*
X116226929Y-64228000D01*
X116260960Y-64286944D01*
X116265383Y-64291857D01*
X116265441Y-64291936D01*
X116289301Y-64358804D01*
X116273223Y-64427956D01*
X116222310Y-64477437D01*
X116163507Y-64492000D01*
X112384500Y-64492000D01*
X112316379Y-64471998D01*
X112269886Y-64418342D01*
X112258500Y-64366000D01*
X112258500Y-63101866D01*
X112251745Y-63039684D01*
X112200615Y-62903295D01*
X112113261Y-62786739D01*
X111996705Y-62699385D01*
X111860316Y-62648255D01*
X111798134Y-62641500D01*
X108885225Y-62641500D01*
X108817104Y-62621498D01*
X108770611Y-62567842D01*
X108760507Y-62497568D01*
X108765392Y-62476564D01*
X108791502Y-62396206D01*
X108793542Y-62389928D01*
X108796310Y-62363598D01*
X108812814Y-62206565D01*
X108813504Y-62200000D01*
X108812814Y-62193432D01*
X108810632Y-62172669D01*
X108823405Y-62102831D01*
X108871908Y-62050985D01*
X108935942Y-62033500D01*
X112091800Y-62033500D01*
X112159921Y-62053502D01*
X112179147Y-62069843D01*
X112179420Y-62069540D01*
X112184332Y-62073963D01*
X112188747Y-62078866D01*
X112210329Y-62094546D01*
X112296771Y-62157350D01*
X112343248Y-62191118D01*
X112349276Y-62193802D01*
X112349278Y-62193803D01*
X112407352Y-62219659D01*
X112517712Y-62268794D01*
X112603101Y-62286944D01*
X112698056Y-62307128D01*
X112698061Y-62307128D01*
X112704513Y-62308500D01*
X112895487Y-62308500D01*
X112901939Y-62307128D01*
X112901944Y-62307128D01*
X112996899Y-62286944D01*
X113082288Y-62268794D01*
X113192648Y-62219659D01*
X113250722Y-62193803D01*
X113250724Y-62193802D01*
X113256752Y-62191118D01*
X113303230Y-62157350D01*
X113352495Y-62121556D01*
X113411253Y-62078866D01*
X113442824Y-62043803D01*
X113534621Y-61941852D01*
X113534622Y-61941851D01*
X113539040Y-61936944D01*
X113634527Y-61771556D01*
X113693542Y-61589928D01*
X113704089Y-61489584D01*
X113712814Y-61406565D01*
X113713504Y-61400000D01*
X113711899Y-61384729D01*
X113710632Y-61372669D01*
X113723405Y-61302831D01*
X113771908Y-61250985D01*
X113835942Y-61233500D01*
X115535406Y-61233500D01*
X115603527Y-61253502D01*
G37*
G04 #@! TD.AperFunction*
G04 #@! TA.AperFunction,Conductor*
G36*
X130859079Y-53528002D02*
G01*
X130905572Y-53581658D01*
X130915676Y-53651932D01*
X130886182Y-53716512D01*
X130826456Y-53754896D01*
X130806750Y-53759006D01*
X130638412Y-53780272D01*
X130338780Y-53857204D01*
X130335111Y-53858657D01*
X130335110Y-53858657D01*
X130282734Y-53879394D01*
X130051152Y-53971084D01*
X130047693Y-53972985D01*
X130047690Y-53972987D01*
X129969760Y-54015830D01*
X129780065Y-54120116D01*
X129529795Y-54301948D01*
X129304287Y-54513713D01*
X129107099Y-54752073D01*
X128941340Y-55013267D01*
X128939656Y-55016846D01*
X128939652Y-55016853D01*
X128811314Y-55289586D01*
X128809625Y-55293176D01*
X128714030Y-55587387D01*
X128656063Y-55891259D01*
X128636639Y-56200000D01*
X128656063Y-56508741D01*
X128714030Y-56812613D01*
X128809625Y-57106824D01*
X128811312Y-57110410D01*
X128811314Y-57110414D01*
X128939652Y-57383147D01*
X128939656Y-57383154D01*
X128941340Y-57386733D01*
X128943464Y-57390079D01*
X128943464Y-57390080D01*
X128968515Y-57429554D01*
X129107099Y-57647927D01*
X129304287Y-57886287D01*
X129529795Y-58098052D01*
X129532997Y-58100379D01*
X129532999Y-58100380D01*
X129597057Y-58146921D01*
X129780065Y-58279884D01*
X129834977Y-58310072D01*
X130046865Y-58426559D01*
X130051152Y-58428916D01*
X130230690Y-58500000D01*
X130324740Y-58537237D01*
X130338780Y-58542796D01*
X130638412Y-58619728D01*
X130945324Y-58658500D01*
X131254676Y-58658500D01*
X131561588Y-58619728D01*
X131861220Y-58542796D01*
X131875261Y-58537237D01*
X131969310Y-58500000D01*
X132148848Y-58428916D01*
X132153136Y-58426559D01*
X132365023Y-58310072D01*
X132419935Y-58279884D01*
X132602943Y-58146921D01*
X132667001Y-58100380D01*
X132667003Y-58100379D01*
X132670205Y-58098052D01*
X132895713Y-57886287D01*
X133092901Y-57647927D01*
X133231485Y-57429554D01*
X133256536Y-57390080D01*
X133256536Y-57390079D01*
X133258660Y-57386733D01*
X133260344Y-57383154D01*
X133260348Y-57383147D01*
X133388686Y-57110414D01*
X133388688Y-57110410D01*
X133390375Y-57106824D01*
X133454167Y-56910493D01*
X133494241Y-56851887D01*
X133559637Y-56824250D01*
X133629594Y-56836357D01*
X133681900Y-56884363D01*
X133700000Y-56949429D01*
X133700000Y-59784847D01*
X133679998Y-59852968D01*
X133626342Y-59899461D01*
X133556068Y-59909565D01*
X133491488Y-59880071D01*
X133466856Y-59851150D01*
X133402332Y-59746881D01*
X133398478Y-59740653D01*
X133273302Y-59615695D01*
X133122737Y-59522886D01*
X132954860Y-59467203D01*
X132948027Y-59466503D01*
X132948023Y-59466502D01*
X132892147Y-59460778D01*
X132850399Y-59456500D01*
X131113498Y-59456500D01*
X129349602Y-59456501D01*
X129243835Y-59467474D01*
X129237302Y-59469654D01*
X129237300Y-59469654D01*
X129142803Y-59501181D01*
X129076055Y-59523450D01*
X128925653Y-59616522D01*
X128800695Y-59741698D01*
X128707886Y-59892263D01*
X128705581Y-59899211D01*
X128705581Y-59899212D01*
X128683262Y-59966500D01*
X128652203Y-60060140D01*
X128651503Y-60066973D01*
X128651502Y-60066977D01*
X128649818Y-60083414D01*
X128641500Y-60164601D01*
X128641501Y-63665398D01*
X128652474Y-63771165D01*
X128654654Y-63777698D01*
X128654654Y-63777700D01*
X128662094Y-63800000D01*
X128708450Y-63938945D01*
X128801522Y-64089347D01*
X128806704Y-64094520D01*
X128827491Y-64115271D01*
X128926698Y-64214305D01*
X128932928Y-64218145D01*
X128932929Y-64218146D01*
X128998785Y-64258740D01*
X129046278Y-64311512D01*
X129057702Y-64381584D01*
X129029428Y-64446708D01*
X128970434Y-64486207D01*
X128932669Y-64492000D01*
X124086493Y-64492000D01*
X124018372Y-64471998D01*
X123971879Y-64418342D01*
X123961775Y-64348068D01*
X123984559Y-64291936D01*
X123984617Y-64291857D01*
X123989040Y-64286944D01*
X124023072Y-64228000D01*
X124081223Y-64127279D01*
X124081224Y-64127278D01*
X124084527Y-64121556D01*
X124143542Y-63939928D01*
X124144438Y-63931409D01*
X124162814Y-63756565D01*
X124163504Y-63750000D01*
X124156028Y-63678866D01*
X124144232Y-63566635D01*
X124144232Y-63566633D01*
X124143542Y-63560072D01*
X124084527Y-63378444D01*
X124074891Y-63361755D01*
X124058011Y-63298756D01*
X124058011Y-63194500D01*
X124078013Y-63126379D01*
X124131669Y-63079886D01*
X124184011Y-63068500D01*
X125850400Y-63068500D01*
X125853646Y-63068163D01*
X125853650Y-63068163D01*
X125949307Y-63058238D01*
X125949311Y-63058237D01*
X125956165Y-63057526D01*
X125962701Y-63055345D01*
X125962703Y-63055345D01*
X126116997Y-63003868D01*
X126123945Y-63001550D01*
X126274348Y-62908478D01*
X126399305Y-62783303D01*
X126483076Y-62647402D01*
X126488275Y-62638968D01*
X126488276Y-62638966D01*
X126492115Y-62632738D01*
X126536949Y-62497568D01*
X126545632Y-62471389D01*
X126545632Y-62471387D01*
X126547797Y-62464861D01*
X126558500Y-62360400D01*
X126558500Y-60659600D01*
X126558163Y-60656350D01*
X126548238Y-60560693D01*
X126548237Y-60560689D01*
X126547526Y-60553835D01*
X126491550Y-60386055D01*
X126398478Y-60235652D01*
X126273303Y-60110695D01*
X126267072Y-60106854D01*
X126128968Y-60021725D01*
X126128966Y-60021724D01*
X126122738Y-60017885D01*
X126029076Y-59986819D01*
X125961389Y-59964368D01*
X125961387Y-59964368D01*
X125954861Y-59962203D01*
X125948025Y-59961503D01*
X125948022Y-59961502D01*
X125904969Y-59957091D01*
X125850400Y-59951500D01*
X124184011Y-59951500D01*
X124115890Y-59931498D01*
X124069397Y-59877842D01*
X124058011Y-59825500D01*
X124058011Y-59175589D01*
X124078013Y-59107468D01*
X124131669Y-59060975D01*
X124201943Y-59050871D01*
X124249845Y-59068156D01*
X124268770Y-59079753D01*
X124290268Y-59092927D01*
X124373201Y-59127279D01*
X124512335Y-59184911D01*
X124512337Y-59184912D01*
X124516908Y-59186805D01*
X124577801Y-59201424D01*
X124750630Y-59242917D01*
X124750636Y-59242918D01*
X124755443Y-59244072D01*
X125000000Y-59263319D01*
X125244557Y-59244072D01*
X125249364Y-59242918D01*
X125249370Y-59242917D01*
X125422199Y-59201424D01*
X125483092Y-59186805D01*
X125487663Y-59184912D01*
X125487665Y-59184911D01*
X125626799Y-59127279D01*
X125709732Y-59092927D01*
X125861376Y-59000000D01*
X125914670Y-58967342D01*
X125914673Y-58967340D01*
X125918896Y-58964752D01*
X125940611Y-58946206D01*
X126101677Y-58808641D01*
X126105433Y-58805433D01*
X126158385Y-58743435D01*
X126261535Y-58622663D01*
X126261537Y-58622660D01*
X126264752Y-58618896D01*
X126287877Y-58581160D01*
X126341634Y-58493435D01*
X126392927Y-58409732D01*
X126472025Y-58218774D01*
X126484911Y-58187665D01*
X126484912Y-58187663D01*
X126486805Y-58183092D01*
X126522722Y-58033486D01*
X126542917Y-57949370D01*
X126542918Y-57949364D01*
X126544072Y-57944557D01*
X126563319Y-57700000D01*
X126544072Y-57455443D01*
X126532338Y-57406565D01*
X126503125Y-57284887D01*
X126486805Y-57216908D01*
X126484655Y-57211716D01*
X126441099Y-57106565D01*
X126392927Y-56990268D01*
X126281670Y-56808712D01*
X126267342Y-56785330D01*
X126267340Y-56785327D01*
X126264752Y-56781104D01*
X126258077Y-56773288D01*
X126108641Y-56598323D01*
X126105433Y-56594567D01*
X126087866Y-56579563D01*
X125922663Y-56438465D01*
X125922660Y-56438463D01*
X125918896Y-56435248D01*
X125914673Y-56432660D01*
X125914670Y-56432658D01*
X125779391Y-56349760D01*
X125709732Y-56307073D01*
X125510170Y-56224411D01*
X125487665Y-56215089D01*
X125487663Y-56215088D01*
X125483092Y-56213195D01*
X125368034Y-56185572D01*
X125249370Y-56157083D01*
X125249364Y-56157082D01*
X125244557Y-56155928D01*
X125000000Y-56136681D01*
X124755443Y-56155928D01*
X124750636Y-56157082D01*
X124750630Y-56157083D01*
X124631966Y-56185572D01*
X124516908Y-56213195D01*
X124512337Y-56215088D01*
X124512335Y-56215089D01*
X124489830Y-56224411D01*
X124290268Y-56307073D01*
X124286048Y-56309659D01*
X124249845Y-56331844D01*
X124181312Y-56350382D01*
X124113635Y-56328925D01*
X124068302Y-56274286D01*
X124058011Y-56224411D01*
X124058011Y-55465469D01*
X124078013Y-55397348D01*
X124094916Y-55376374D01*
X124524470Y-54946820D01*
X124587368Y-54912668D01*
X124750190Y-54878059D01*
X124878388Y-54820982D01*
X124918624Y-54803068D01*
X124918626Y-54803067D01*
X124924654Y-54800383D01*
X125079155Y-54688131D01*
X125127131Y-54634848D01*
X125202523Y-54551117D01*
X125202524Y-54551116D01*
X125206942Y-54546209D01*
X125291356Y-54400000D01*
X125299125Y-54386544D01*
X125299126Y-54386543D01*
X125302429Y-54380821D01*
X125361444Y-54199193D01*
X125365897Y-54156830D01*
X125380716Y-54015830D01*
X125381406Y-54009265D01*
X125365424Y-53857204D01*
X125362134Y-53825900D01*
X125362134Y-53825898D01*
X125361444Y-53819337D01*
X125313875Y-53672936D01*
X125311847Y-53601969D01*
X125348510Y-53541171D01*
X125412222Y-53509845D01*
X125433708Y-53508000D01*
X130790958Y-53508000D01*
X130859079Y-53528002D01*
G37*
G04 #@! TD.AperFunction*
G04 #@! TA.AperFunction,Conductor*
G36*
X122500364Y-53528002D02*
G01*
X122546857Y-53581658D01*
X122556961Y-53651932D01*
X122541362Y-53697000D01*
X122472604Y-53816092D01*
X122465473Y-53828444D01*
X122406458Y-54010072D01*
X122405768Y-54016633D01*
X122405768Y-54016635D01*
X122404527Y-54028444D01*
X122386496Y-54200000D01*
X122387186Y-54206565D01*
X122401660Y-54344274D01*
X122406458Y-54389928D01*
X122465473Y-54571556D01*
X122560960Y-54736944D01*
X122688747Y-54878866D01*
X122733319Y-54911250D01*
X122747200Y-54921335D01*
X122790554Y-54977558D01*
X122795180Y-55054607D01*
X122791011Y-55070845D01*
X122791011Y-55091099D01*
X122789460Y-55110809D01*
X122786291Y-55130818D01*
X122787037Y-55138710D01*
X122790452Y-55174836D01*
X122791011Y-55186694D01*
X122791011Y-57727462D01*
X122771009Y-57795583D01*
X122717353Y-57842076D01*
X122647079Y-57852180D01*
X122638815Y-57850709D01*
X122601946Y-57842873D01*
X122601947Y-57842873D01*
X122595487Y-57841500D01*
X122404513Y-57841500D01*
X122398061Y-57842872D01*
X122398056Y-57842872D01*
X122312091Y-57861145D01*
X122217712Y-57881206D01*
X122211682Y-57883891D01*
X122211681Y-57883891D01*
X122049278Y-57956197D01*
X122049276Y-57956198D01*
X122043248Y-57958882D01*
X122037907Y-57962762D01*
X122037906Y-57962763D01*
X122004760Y-57986845D01*
X121888747Y-58071134D01*
X121884326Y-58076044D01*
X121884325Y-58076045D01*
X121784208Y-58187237D01*
X121760960Y-58213056D01*
X121665473Y-58378444D01*
X121606458Y-58560072D01*
X121605768Y-58566633D01*
X121605768Y-58566635D01*
X121592810Y-58689928D01*
X121586496Y-58750000D01*
X121587186Y-58756565D01*
X121602621Y-58903417D01*
X121606458Y-58939928D01*
X121665473Y-59121556D01*
X121668776Y-59127278D01*
X121668777Y-59127279D01*
X121681657Y-59149588D01*
X121760960Y-59286944D01*
X121765378Y-59291851D01*
X121765379Y-59291852D01*
X121810082Y-59341500D01*
X121888747Y-59428866D01*
X122043248Y-59541118D01*
X122049276Y-59543802D01*
X122049278Y-59543803D01*
X122208988Y-59614910D01*
X122217712Y-59618794D01*
X122292680Y-59634729D01*
X122398056Y-59657128D01*
X122398061Y-59657128D01*
X122404513Y-59658500D01*
X122595487Y-59658500D01*
X122613393Y-59654694D01*
X122638815Y-59649291D01*
X122709606Y-59654694D01*
X122766238Y-59697511D01*
X122790731Y-59764149D01*
X122791011Y-59772538D01*
X122791011Y-62896307D01*
X122771009Y-62964428D01*
X122739072Y-62998243D01*
X122727618Y-63006565D01*
X122638747Y-63071134D01*
X122634326Y-63076044D01*
X122634325Y-63076045D01*
X122531785Y-63189928D01*
X122510960Y-63213056D01*
X122415473Y-63378444D01*
X122356458Y-63560072D01*
X122355768Y-63566633D01*
X122355768Y-63566635D01*
X122343972Y-63678866D01*
X122336496Y-63750000D01*
X122337186Y-63756565D01*
X122355563Y-63931409D01*
X122356458Y-63939928D01*
X122415473Y-64121556D01*
X122418776Y-64127278D01*
X122418777Y-64127279D01*
X122476929Y-64228000D01*
X122510960Y-64286944D01*
X122515383Y-64291857D01*
X122515441Y-64291936D01*
X122539301Y-64358804D01*
X122523223Y-64427956D01*
X122472310Y-64477437D01*
X122413507Y-64492000D01*
X121904500Y-64492000D01*
X121836379Y-64471998D01*
X121789886Y-64418342D01*
X121778500Y-64366000D01*
X121778500Y-63551866D01*
X121771745Y-63489684D01*
X121720615Y-63353295D01*
X121633261Y-63236739D01*
X121516705Y-63149385D01*
X121380316Y-63098255D01*
X121318134Y-63091500D01*
X120221866Y-63091500D01*
X120159684Y-63098255D01*
X120023295Y-63149385D01*
X120016116Y-63154766D01*
X120008237Y-63159079D01*
X120007023Y-63156861D01*
X119953072Y-63177018D01*
X119896127Y-63167654D01*
X119892701Y-63165802D01*
X119703768Y-63107318D01*
X119697643Y-63106674D01*
X119697642Y-63106674D01*
X119513204Y-63087289D01*
X119513202Y-63087289D01*
X119507075Y-63086645D01*
X119426686Y-63093961D01*
X119316251Y-63104011D01*
X119316248Y-63104012D01*
X119310112Y-63104570D01*
X119304206Y-63106308D01*
X119304202Y-63106309D01*
X119227954Y-63128750D01*
X119120381Y-63160410D01*
X119114923Y-63163263D01*
X119114919Y-63163265D01*
X119029067Y-63208148D01*
X118945110Y-63252040D01*
X118940310Y-63255900D01*
X118935153Y-63259274D01*
X118933849Y-63257281D01*
X118877977Y-63280354D01*
X118808122Y-63267674D01*
X118794186Y-63259522D01*
X118790980Y-63257360D01*
X118627924Y-63169196D01*
X118616619Y-63164444D01*
X118501308Y-63128750D01*
X118487205Y-63128544D01*
X118484000Y-63135299D01*
X118484000Y-64228000D01*
X118463998Y-64296121D01*
X118410342Y-64342614D01*
X118358000Y-64354000D01*
X118102000Y-64354000D01*
X118033879Y-64333998D01*
X117987386Y-64280342D01*
X117976000Y-64228000D01*
X117976000Y-63142076D01*
X117972027Y-63128545D01*
X117964232Y-63127425D01*
X117856479Y-63159138D01*
X117845106Y-63163733D01*
X117829403Y-63171942D01*
X117759767Y-63185776D01*
X117693707Y-63159765D01*
X117677394Y-63144591D01*
X117665865Y-63131787D01*
X117635147Y-63067780D01*
X117633500Y-63047476D01*
X117633500Y-61828768D01*
X117634027Y-61817585D01*
X117635702Y-61810092D01*
X117634975Y-61786944D01*
X117633562Y-61742002D01*
X117633500Y-61738044D01*
X117633500Y-61710144D01*
X117632996Y-61706153D01*
X117632063Y-61694311D01*
X117631261Y-61668774D01*
X117630674Y-61650111D01*
X117625021Y-61630652D01*
X117621012Y-61611293D01*
X117620406Y-61606495D01*
X117618474Y-61591203D01*
X117615558Y-61583837D01*
X117615556Y-61583831D01*
X117602200Y-61550098D01*
X117598355Y-61538868D01*
X117588230Y-61504017D01*
X117588230Y-61504016D01*
X117586019Y-61496407D01*
X117575705Y-61478966D01*
X117567008Y-61461213D01*
X117562472Y-61449758D01*
X117559552Y-61442383D01*
X117533563Y-61406612D01*
X117527047Y-61396692D01*
X117516255Y-61378444D01*
X117504542Y-61358638D01*
X117490221Y-61344317D01*
X117477380Y-61329283D01*
X117470131Y-61319306D01*
X117465472Y-61312893D01*
X117431395Y-61284702D01*
X117422616Y-61276712D01*
X116353652Y-60207747D01*
X116346112Y-60199461D01*
X116342000Y-60192982D01*
X116292348Y-60146356D01*
X116289507Y-60143602D01*
X116269770Y-60123865D01*
X116266573Y-60121385D01*
X116257551Y-60113680D01*
X116225321Y-60083414D01*
X116227624Y-60080961D01*
X116193658Y-60036913D01*
X116187583Y-59966177D01*
X116220715Y-59903386D01*
X116272137Y-59871367D01*
X116275833Y-59870166D01*
X116282288Y-59868794D01*
X116371216Y-59829201D01*
X116450722Y-59793803D01*
X116450724Y-59793802D01*
X116456752Y-59791118D01*
X116465384Y-59784847D01*
X116517639Y-59746881D01*
X116611253Y-59678866D01*
X116633018Y-59654694D01*
X116734621Y-59541852D01*
X116734622Y-59541851D01*
X116739040Y-59536944D01*
X116813197Y-59408500D01*
X116831223Y-59377279D01*
X116831224Y-59377278D01*
X116834527Y-59371556D01*
X116893542Y-59189928D01*
X116894377Y-59181990D01*
X116912814Y-59006565D01*
X116913504Y-59000000D01*
X116909799Y-58964752D01*
X116894232Y-58816635D01*
X116894232Y-58816633D01*
X116893542Y-58810072D01*
X116834527Y-58628444D01*
X116831190Y-58622663D01*
X116783961Y-58540861D01*
X116739040Y-58463056D01*
X116728822Y-58451707D01*
X116615675Y-58326045D01*
X116615674Y-58326044D01*
X116611253Y-58321134D01*
X116471687Y-58219733D01*
X116428333Y-58163511D01*
X116422258Y-58092774D01*
X116452110Y-58033489D01*
X116539040Y-57936944D01*
X116634527Y-57771556D01*
X116693542Y-57589928D01*
X116703977Y-57490650D01*
X116712814Y-57406565D01*
X116713504Y-57400000D01*
X116704599Y-57315272D01*
X116694232Y-57216635D01*
X116694232Y-57216633D01*
X116693542Y-57210072D01*
X116634527Y-57028444D01*
X116539040Y-56863056D01*
X116462312Y-56777841D01*
X116431595Y-56713833D01*
X116440360Y-56643380D01*
X116466854Y-56604436D01*
X117506106Y-55565185D01*
X118562998Y-54508293D01*
X118625310Y-54474267D01*
X118696126Y-54479332D01*
X118703321Y-54482273D01*
X118717712Y-54488680D01*
X118759340Y-54497528D01*
X118898056Y-54527014D01*
X118898061Y-54527014D01*
X118904513Y-54528386D01*
X119095487Y-54528386D01*
X119101939Y-54527014D01*
X119101944Y-54527014D01*
X119199877Y-54506197D01*
X119282288Y-54488680D01*
X119303284Y-54479332D01*
X119450722Y-54413689D01*
X119450724Y-54413688D01*
X119456752Y-54411004D01*
X119481709Y-54392872D01*
X119529299Y-54358295D01*
X119611253Y-54298752D01*
X119629766Y-54278191D01*
X119734621Y-54161738D01*
X119734622Y-54161737D01*
X119739040Y-54156830D01*
X119825714Y-54006706D01*
X119831223Y-53997165D01*
X119831224Y-53997164D01*
X119834527Y-53991442D01*
X119893542Y-53809814D01*
X119896544Y-53781257D01*
X119913405Y-53620829D01*
X119940418Y-53555173D01*
X119998640Y-53514543D01*
X120038715Y-53508000D01*
X122432243Y-53508000D01*
X122500364Y-53528002D01*
G37*
G04 #@! TD.AperFunction*
G04 #@! TA.AperFunction,Conductor*
G36*
X112383621Y-53528002D02*
G01*
X112430114Y-53581658D01*
X112441500Y-53634000D01*
X112441500Y-54997334D01*
X112448255Y-55059516D01*
X112499385Y-55195905D01*
X112586739Y-55312461D01*
X112593919Y-55317842D01*
X112598506Y-55322429D01*
X112632532Y-55384741D01*
X112627467Y-55455556D01*
X112584920Y-55512392D01*
X112560660Y-55526631D01*
X112436979Y-55581697D01*
X112436977Y-55581698D01*
X112430949Y-55584382D01*
X112425608Y-55588262D01*
X112425607Y-55588263D01*
X112385703Y-55617255D01*
X112276448Y-55696634D01*
X112272027Y-55701544D01*
X112272026Y-55701545D01*
X112164116Y-55821392D01*
X112148661Y-55838556D01*
X112053174Y-56003944D01*
X111994159Y-56185572D01*
X111993469Y-56192133D01*
X111993469Y-56192135D01*
X111982989Y-56291852D01*
X111974197Y-56375500D01*
X111974887Y-56382065D01*
X111991817Y-56543141D01*
X111994159Y-56565428D01*
X112053174Y-56747056D01*
X112056477Y-56752777D01*
X112056478Y-56752779D01*
X112079167Y-56792077D01*
X112148661Y-56912444D01*
X112276448Y-57054366D01*
X112348650Y-57106824D01*
X112399341Y-57143653D01*
X112430949Y-57166618D01*
X112436978Y-57169302D01*
X112436981Y-57169304D01*
X112440741Y-57170978D01*
X112442563Y-57172527D01*
X112442702Y-57172607D01*
X112442687Y-57172632D01*
X112494836Y-57216959D01*
X112515484Y-57284887D01*
X112496130Y-57353194D01*
X112463551Y-57388020D01*
X112460716Y-57390080D01*
X112401046Y-57433433D01*
X112396625Y-57438343D01*
X112396624Y-57438344D01*
X112281111Y-57566635D01*
X112273259Y-57575355D01*
X112229767Y-57650685D01*
X112185162Y-57727944D01*
X112177772Y-57740743D01*
X112118757Y-57922371D01*
X112118067Y-57928932D01*
X112118067Y-57928934D01*
X112109050Y-58014724D01*
X112098795Y-58112299D01*
X112099485Y-58118864D01*
X112117667Y-58291852D01*
X112118757Y-58302227D01*
X112123639Y-58317251D01*
X112159026Y-58426162D01*
X112161054Y-58497129D01*
X112124391Y-58557927D01*
X112060679Y-58589253D01*
X111990145Y-58581160D01*
X111950098Y-58554193D01*
X109303652Y-55907747D01*
X109296112Y-55899461D01*
X109292000Y-55892982D01*
X109242348Y-55846356D01*
X109239507Y-55843602D01*
X109219770Y-55823865D01*
X109216573Y-55821385D01*
X109207551Y-55813680D01*
X109181100Y-55788841D01*
X109175321Y-55783414D01*
X109168375Y-55779595D01*
X109168372Y-55779593D01*
X109157566Y-55773652D01*
X109141047Y-55762801D01*
X109133007Y-55756565D01*
X109125041Y-55750386D01*
X109117772Y-55747241D01*
X109117768Y-55747238D01*
X109084463Y-55732826D01*
X109073813Y-55727609D01*
X109035060Y-55706305D01*
X109015437Y-55701267D01*
X108996734Y-55694863D01*
X108985420Y-55689967D01*
X108985419Y-55689967D01*
X108978145Y-55686819D01*
X108970322Y-55685580D01*
X108970312Y-55685577D01*
X108934476Y-55679901D01*
X108922856Y-55677495D01*
X108887711Y-55668472D01*
X108887710Y-55668472D01*
X108880030Y-55666500D01*
X108859776Y-55666500D01*
X108840065Y-55664949D01*
X108827886Y-55663020D01*
X108820057Y-55661780D01*
X108783127Y-55665271D01*
X108776039Y-55665941D01*
X108764181Y-55666500D01*
X108408200Y-55666500D01*
X108340079Y-55646498D01*
X108320853Y-55630157D01*
X108320580Y-55630460D01*
X108315668Y-55626037D01*
X108311253Y-55621134D01*
X108158460Y-55510123D01*
X108115107Y-55453902D01*
X108109032Y-55383166D01*
X108142163Y-55320374D01*
X108206324Y-55284942D01*
X108275824Y-55270169D01*
X108275833Y-55270166D01*
X108282288Y-55268794D01*
X108288319Y-55266109D01*
X108450722Y-55193803D01*
X108450724Y-55193802D01*
X108456752Y-55191118D01*
X108471023Y-55180750D01*
X108550523Y-55122989D01*
X108611253Y-55078866D01*
X108706818Y-54972730D01*
X108734621Y-54941852D01*
X108734622Y-54941851D01*
X108739040Y-54936944D01*
X108817884Y-54800383D01*
X108831223Y-54777279D01*
X108831224Y-54777278D01*
X108834527Y-54771556D01*
X108893542Y-54589928D01*
X108894872Y-54577279D01*
X108912814Y-54406565D01*
X108913504Y-54400000D01*
X108903230Y-54302244D01*
X108894232Y-54216635D01*
X108894232Y-54216633D01*
X108893542Y-54210072D01*
X108834527Y-54028444D01*
X108821185Y-54005334D01*
X108785676Y-53943831D01*
X108739040Y-53863056D01*
X108696754Y-53816092D01*
X108611253Y-53721134D01*
X108612656Y-53719870D01*
X108580201Y-53667183D01*
X108581557Y-53596199D01*
X108621074Y-53537217D01*
X108686206Y-53508963D01*
X108701753Y-53508000D01*
X112315500Y-53508000D01*
X112383621Y-53528002D01*
G37*
G04 #@! TD.AperFunction*
G04 #@! TD*
M02*
